<svg xmlns="http://www.w3.org/2000/svg" width="80" height="80" viewBox="0 0 80 80">
    <g fill="none" fill-rule="evenodd">
        <g>
            <g>
                <g transform="translate(-976 -3692) translate(935 3676) translate(41 16)">
                    <circle cx="40" cy="40" r="40" fill="#03A3A6" fill-opacity=".09"/>
                    <g fill-rule="nonzero">
                        <path fill="#ECEFF1" d="M41.951 7.051C37.291 2.545 31.157 0 24.625 0 5.878 0-5.895 20.312 3.467 36.469L0 49.067l12.951-3.378c5.643 3.049 10.265 2.779 11.686 2.959 21.739 0 32.56-26.3 17.284-41.517l.03-.08z" transform="translate(16 16)"/>
                        <path fill="#00AAAE" d="M24.535 44.8l-.013-.002h-.032c-6.49 0-10.637-3.087-11.045-3.266L5.796 43.53l2.05-7.467-.487-.769c-2.02-3.228-3.092-6.947-3.092-10.776 0-18.013 21.916-27.021 34.598-14.289 12.652 12.6 3.77 34.571-14.33 34.571z" transform="translate(16 16)"/>
                        <path fill="#FAFAFA" d="M36.094 29.459l-.018.157c-.608-.315-3.57-1.816-4.121-2.023-1.239-.476-.89-.076-3.267 2.747-.354.409-.705.44-1.305.157-.606-.314-2.552-.974-4.855-3.11-1.794-1.664-2.998-3.706-3.353-4.335-.592-1.06.646-1.21 1.774-3.422.202-.44.099-.785-.05-1.097-.152-.314-1.358-3.392-1.864-4.62-.484-1.223-.983-1.068-1.357-1.068-1.164-.104-2.014-.088-2.764.72-3.26 3.716-2.438 7.548.352 11.623 5.483 7.44 8.404 8.809 13.745 10.71 1.443.476 2.758.409 3.798.254 1.16-.191 3.57-1.51 4.073-2.987.515-1.476.515-2.701.364-2.984-.15-.283-.546-.44-1.152-.722z" transform="translate(16 16)"/>
                    </g>
                </g>
            </g>
        </g>
    </g>
</svg>
