<svg xmlns="http://www.w3.org/2000/svg" width="75" height="75" viewBox="0 0 75 75">
    <g fill="none" fill-rule="evenodd">
        <g fill-rule="nonzero">
            <g>
                <g fill="#00AAAE">
                    <path d="M58.984 26.078c.215 2.74-1.746 5.172-4.38 5.431-2.016.199-3.84-.934-4.683-2.704l-2.39.207-1.804.856c-.413.195-.69.582-.754 1.027-.17 1.2-.48 2.356-.91 3.454-.146.372-.12.787.078 1.134l.643 1.13 1.788 1.178c.942-.354 2.04-.27 2.941.326 1.53 1.008 1.896 3.084.759 4.544-.98 1.259-2.8 1.605-4.185.796-.883-.514-1.416-1.369-1.546-2.281L42.56 39.87l-1.247-.15c-.429-.05-.855.094-1.167.387-1.052.985-2.24 1.83-3.532 2.508-.435.227-.713.664-.744 1.146l-.158 2.481.784 3.057c1.334.366 2.438 1.405 2.8 2.82.548 2.137-.803 4.306-3.007 4.788-1.988.436-4.028-.703-4.66-2.606-.492-1.486-.04-3.022 1-4.026L31.84 47.2l-1.216-1.921c-.327-.516-.904-.82-1.522-.82h-.01c-1.066 0-2.108-.104-3.116-.299-.6-.117-1.22.07-1.641.506l-1.608 1.667-1.8 3.668c.422.841.46 1.857.014 2.767-.8 1.632-2.844 2.28-4.477 1.378-1.398-.774-2.003-2.482-1.394-3.942.415-.995 1.276-1.66 2.25-1.883l1.81-3.692.356-2.477c.065-.457-.113-.918-.478-1.207-1.44-1.149-2.675-2.535-3.64-4.1-.24-.389-.672-.625-1.134-.628l-2.518-.024-2.757.852c-.194 1.684-1.368 3.18-3.118 3.721-2.353.728-4.859-.543-5.622-2.84-.764-2.295.526-4.807 2.86-5.565 1.634-.531 3.35-.09 4.512.995l2.926-.904 2.137-1.497c.318-.221.487-.592.456-.972-.036-.423-.054-.849-.054-1.28 0-2.34.524-4.56 1.459-6.559.136-.293.132-.63-.011-.92l-.633-1.271-1.718-1.275c-.962.303-2.052.158-2.919-.484-1.47-1.091-1.72-3.184-.502-4.58 1.049-1.202 2.886-1.448 4.224-.566.853.563 1.337 1.443 1.415 2.362l1.904 1.412 1.92.336c1.396-1.274 3.024-2.307 4.813-3.03l.45-2.69-.569-2.778c-1.682-.426-3.048-1.693-3.416-3.382-.519-2.386 1.15-4.71 3.73-5.19 2.577-.48 5.088 1.064 5.606 3.45.389 1.787-.448 3.537-1.975 4.506l.537 2.62 1.32 2.067c.086.136.237.217.398.217h.003c3.02 0 5.847.825 8.261 2.259.133.077.296.088.436.024l2.065-.94 2.411-2.563c-.145-.92.122-1.893.815-2.629 1.251-1.329 3.394-1.362 4.687-.033 1.134 1.166 1.178 3.027.102 4.244-.697.789-1.697 1.153-2.673 1.08l-2.41 2.563-.784 2.07c-.055.144-.03.304.061.428.951 1.283 1.71 2.711 2.233 4.245.145.421.486.749.922.87l1.96.54 2.547-.222c.625-1.77 2.185-3.108 4.1-3.297 2.634-.26 4.944 1.751 5.158 4.49z" transform="translate(-890 -3471) translate(890 3471) translate(8 8)"/>
                </g>
                <g fill="#00AAAE" transform="translate(-890 -3471) translate(890 3471) translate(25 25)">
                    <circle cx="11.5" cy="11.5" r="11.5"/>
                </g>
                <g transform="translate(-890 -3471) translate(890 3471) translate(14 10)">
                    <circle cx="3" cy="3" r="3" fill="#DA4A54"/>
                    <circle cx="2.5" cy="46.5" r="1.5" fill="#DA4A54"/>
                    <circle cx="42" cy="50" r="3" fill="#DA4A54"/>
                    <ellipse cx="19.5" cy="24" fill="#FFF" rx="2.5" ry="3"/>
                    <ellipse cx="21" cy="33.5" fill="#FFF" rx="2" ry="1.5"/>
                    <ellipse cx="28" cy="27.5" fill="#FFF" rx="2" ry="1.5"/>
                </g>
            </g>
        </g>
    </g>
</svg>
