<svg xmlns="http://www.w3.org/2000/svg" width="75" height="75" viewBox="0 0 75 75">
    <g fill="none" fill-rule="evenodd">
        <g fill-rule="nonzero">
            <g>
                <g>
                    <path fill="#0D294A" d="M36.295 53.657c-1.124 0-2.095-.198-2.864-.441-1.829-.578-2.929-1.524-2.975-1.564-.337-.294-.362-.795-.056-1.119.306-.323.826-.348 1.163-.056.15.13 3.655 3.057 8.563.666 1.973-.962 2.734-2.836 3.54-4.82 1.406-3.465 3-7.392 11.524-5.656.445.09.73.511.636.939-.095.428-.534.7-.978.61-4.87-.992-6.509.176-7.047.559-1.302.927-1.932 2.48-2.599 4.123-.841 2.073-1.795 4.422-4.33 5.657-1.684.82-3.238 1.102-4.577 1.102z" transform="translate(-330 -3469) translate(330 3469) translate(8.824 11.03)"/>
                    <path fill="#DA4A54" d="M39.996 31.3H25.197c-.579 0-1.048-.464-1.048-1.036V15.65C24.149 7.007 31.244 0 39.996 0c8.753 0 15.848 7.007 15.848 15.65S48.748 31.3 39.996 31.3z" transform="translate(-330 -3469) translate(330 3469) translate(8.824 11.03)"/>
                    <path fill="#D82E3D" d="M40.74 0c-.508 0-1.01.026-1.504.077 7.636.782 13.6 7.456 13.6 15.573 0 8.643-6.762 15.65-15.104 15.65h3.008c8.342 0 15.104-7.007 15.104-15.65S49.082 0 40.74 0z" transform="translate(-330 -3469) translate(330 3469) translate(8.824 11.03)"/>
                    <path fill="#DA4A54" d="M20.605 11.924c-.122 0-.245-.024-.365-.073-.505-.208-.75-.798-.549-1.317 1.559-4.01 4.11-7.573 7.38-10.307.423-.353 1.043-.287 1.385.148.343.434.279 1.072-.143 1.425-3.01 2.517-5.36 5.797-6.794 9.486-.154.397-.524.638-.914.638zM17.623 7.452c-.126 0-.255-.023-.379-.073-.523-.21-.778-.803-.568-1.325.907-2.266 2.394-4.28 4.299-5.826.437-.355 1.08-.288 1.436.15.355.436.289 1.078-.15 1.433-1.635 1.327-2.911 3.056-3.69 5-.16.399-.543.641-.948.641zM49.33 37.262c-.41 0-.797-.24-.959-.634-.211-.517.046-1.104.576-1.311 1.968-.77 3.72-2.03 5.062-3.645.36-.432 1.01-.498 1.453-.147.443.351.51.986.15 1.418-1.564 1.881-3.604 3.35-5.898 4.246-.126.05-.256.073-.384.073z" transform="translate(-330 -3469) translate(330 3469) translate(8.824 11.03)"/>
                    <path fill="#DA4A54" d="M45.352 35.16c-.21-.499.046-1.064.572-1.264 3.736-1.416 7.057-3.735 9.606-6.708.358-.417 1.004-.48 1.444-.142.44.338.507.95.15 1.367-2.77 3.23-6.378 5.75-10.438 7.288-.125.048-.254.07-.38.07-.408 0-.793-.231-.954-.611z" transform="translate(-330 -3469) translate(330 3469) translate(8.824 11.03)"/>
                    <path fill="#F6F1F1" d="M47.202 14.84h-3.45c-.228 0-.413-.164-.413-.367v-3.067c0-.537-.49-.973-1.095-.973h-2.987c-.604 0-1.095.436-1.095.973v3.067c0 .203-.184.367-.412.367H34.3c-.606 0-1.096.435-1.096.973v2.655c0 .537.49.973 1.095.973h3.451c.228 0 .412.164.412.366v3.067c0 .538.49.973 1.095.973h2.987c.605 0 1.095-.435 1.095-.973v-3.067c0-.202.185-.366.412-.366h3.451c.605 0 1.095-.436 1.095-.973v-2.655c0-.538-.49-.973-1.095-.973z" transform="translate(-330 -3469) translate(330 3469) translate(8.824 11.03)"/>
                    <g fill="#EADFDA">
                        <path d="M1.513.971v3.05c0 .2.234.364.524.364h2.61c-.288 0-.523-.163-.523-.364V.97c0-.534-.623-.967-1.392-.967H.122c.768 0 1.39.433 1.39.967zM1.513 9.323v3.049c0 .534-.623.967-1.392.967h2.611c.769 0 1.392-.433 1.392-.967v-3.05c0-.2.235-.363.524-.363H2.037c-.29 0-.524.163-.524.364zM9.035 4.385H6.424c.768 0 1.391.433 1.391.967v2.64c0 .533-.623.966-1.391.966h2.61c.77 0 1.392-.433 1.392-.967V5.352c0-.534-.623-.967-1.391-.967z" transform="translate(-330 -3469) translate(330 3469) translate(8.824 11.03) translate(37.732 10.433)"/>
                    </g>
                    <path fill="#00AAAE" d="M27.008 40.199l-3.17 1.97c-1.2.748-2.75.752-3.936-.015-4.928-3.186-7.866-7.61-8.814-13.271-.229-1.364.42-2.726 1.62-3.472l3.894-3.8c-.529-.386-.044.156-.523-.26-2.738-2.375-4.651-5.226-5.689-8.58-.174-.564-2.036-.256-2.16-.847l-2.368 1.472C.721 16.594-1.368 22.88.925 28.362 4.47 36.835 9.677 44.677 16.17 51.315c4.201 4.295 10.978 5.068 16.12 1.87l2.367-1.472c-.764-.558.522-2.137-.138-2.755-2.361-2.217-4.044-4.826-5.01-7.846-.197-.617-2.362-.262-2.5-.913z" transform="translate(-330 -3469) translate(330 3469) translate(8.824 11.03)"/>
                    <path fill="#F6F1F1" d="M13.929 11.694l5.126 6.147c1.063 1.275.584 2.972-1.07 3.792l-1.462.724c-4.768-2.774-7.807-6.34-8.977-10.764l1.462-.724c1.655-.82 3.857-.45 4.92.825zM32.04 40.013l5.127 6.147c1.063 1.275.583 2.972-1.07 3.792l-1.463.724c-4.767-2.774-7.807-6.34-8.976-10.764l1.462-.724c1.654-.82 3.857-.45 4.92.825z" transform="translate(-330 -3469) translate(330 3469) translate(8.824 11.03)"/>
                </g>
            </g>
        </g>
    </g>
</svg>
