<svg xmlns="http://www.w3.org/2000/svg" width="80" height="80" viewBox="0 0 80 80">
    <g fill="none" fill-rule="evenodd">
        <g>
            <g>
                <g transform="translate(-139 -3692) translate(108 3676) translate(31 16)">
                    <circle cx="40" cy="40" r="40" fill="#03A3A6" fill-opacity=".09"/>
                    <g>
                        <path d="M0 0H52.267V52.267H0z" transform="translate(12.8 14.933)"/>
                        <g fill-rule="nonzero">
                            <path fill="#00AAAE" d="M40.192 22.67c-.828-6.567-6.23-11.599-12.828-11.948-6.598-.35-12.5 4.082-14.014 10.525-1.334 5.505.904 11.258 5.603 14.408 2.63 1.722 5.058 3.736 7.236 6.005.241.253.367.246.604 0 1.149-1.217 2.386-2.346 3.7-3.38 1.014-.788 2.088-1.489 3.174-2.173 4.123-2.45 6.648-6.9 6.64-11.702-.023-.586-.045-1.16-.115-1.735zM19.93 26.41c-1.034 0-1.872-.84-1.873-1.876 0-1.036.836-1.877 1.87-1.88 1.035-.002 1.875.836 1.879 1.872 0 1.039-.84 1.882-1.877 1.885l.001-.001zm6.725.1c-1.091 0-1.976-.886-1.976-1.979s.885-1.979 1.976-1.979c1.09 0 1.975.886 1.975 1.98 0 .524-.208 1.028-.58 1.4-.37.37-.873.579-1.397.578h.002zm6.716 0c-1.09 0-1.975-.886-1.975-1.979s.884-1.979 1.975-1.979c1.091 0 1.976.886 1.976 1.98 0 .524-.208 1.028-.58 1.399-.37.371-.873.58-1.397.58h.001z" transform="translate(12.8 14.933) translate(0 1.067)"/>
                            <path fill="#0D294A" d="M44.38 26.626c0-2.325.013-4.65-.007-6.979-.111-.815.373-1.594 1.153-1.853.319-.11.15-.312.1-.48-.567-1.944-1.419-3.792-2.528-5.485C40.325 7.314 35.82 4.14 30.64 3.053c-7.271-1.49-13.414.74-18.425 6.136-2.112 2.306-3.67 5.066-4.555 8.068-.093.307-.117.471.255.619.666.268 1.073.947.996 1.662-.006 1.897 0 3.793 0 5.688 0 2.835.044 5.67-.03 8.505-.016.631.16 1.253.507 1.781 1.677 2.815 3.988 5.198 6.748 6.959 1.972 1.241 4.145 2.127 6.422 2.617.232.085.492.003.633-.2 1.569-1.62 4.138-1.702 5.805-.183.415.4.649.952.648 1.528-.002.577-.238 1.128-.655 1.525-1.605 1.45-4.043 1.455-5.654.011-.14-.115-.252-.261-.326-.427-.163-.591-.618-.693-1.127-.82-5.876-1.396-10.914-5.161-13.924-10.406-.176-.422-.612-.675-1.065-.617-.59.067-1.186.045-1.769-.065-1.791-.377-3.075-1.959-3.079-3.793.064-.353-.158-.696-.506-.782-.642-.242-1.051-.874-1.01-1.56-.013-1.78-.005-3.56.007-5.342-.042-.793.483-1.503 1.251-1.695.24-.075.253-.197.252-.391-.134-1.817 1.02-3.48 2.768-3.985.26-.092.283-.283.338-.486.76-2.892 2.062-5.614 3.838-8.018 3.36-4.805 8.54-8.02 14.331-8.894C31.32-.7 37.94 2.031 43.241 8.055c2.33 2.687 4.001 5.881 4.883 9.329.051.271.254.49.521.558 1.575.543 2.62 2.04 2.59 3.707 0 .34.032.545.428.682.684.226 1.13.885 1.088 1.606.017 1.763.017 3.527 0 5.29.054.792-.458 1.512-1.223 1.718-.39.12-.286.384-.288.623.026 1.89-1.31 3.525-3.165 3.873-.781.127-1.577.14-2.362.04-.802-.124-1.379-.837-1.334-1.649v-7.22.014z" transform="translate(12.8 14.933) translate(0 1.067)"/>
                        </g>
                    </g>
                </g>
            </g>
        </g>
    </g>
</svg>
