<svg xmlns="http://www.w3.org/2000/svg" width="75" height="75" viewBox="0 0 75 75">
    <g fill="none" fill-rule="evenodd">
        <g>
            <g>
                <g fill-rule="nonzero">
                    <path fill="#00AAAE" d="M73.695 39.7c-.354 1.602-1.865 2.112-3.522 2.048-1.568-.06-3.143-.014-4.67-.014-1.753-6.292-4.59-8.899-9.45-8.798-4.583.094-7.519 2.94-8.864 8.675H25.882c-.149-2.816-1.585-5.415-3.907-7.066-1.658-1.165-3.674-1.732-5.707-1.605-4.457.224-7.532 3.305-8.598 8.77-1.434 0-2.902.073-4.354-.02-1.53-.101-2.273-1.12-2.296-2.97-.022-3.6 0-7.205 0-10.808V10.49c0-2.867.91-3.789 3.796-3.789h52.573c2.509-.45 4.924 1.153 5.443 3.612 1.536 3.665 3.036 7.348 4.627 10.991.29.584.77 1.057 1.364 1.343 1.365.623 2.332 1.867 2.586 3.327.727 3.518 1.33 7.06 1.993 10.591.23 1.029.329 2.082.293 3.135zM44.432 28.035v-7.71h-7.555v-7.358h-7.761v7.447h-7.58V28.1h7.687v7.326h7.754v-7.384l7.455-.007zm19.893-6.122c-1.655-4.008-3.195-7.774-4.773-11.52-.12-.284-.504-.655-.77-.657-2.97-.05-5.943-.03-8.864-.03v12.21l14.407-.003z" transform="translate(-607 -3469) translate(607 3469) translate(0 11.607)"/>
                    <path fill="#0D294A" d="M23.64 41.795c.01 1.788-.714 3.504-2.008 4.759-1.294 1.254-3.048 1.941-4.864 1.904-1.817.008-3.563-.697-4.85-1.96-1.289-1.262-2.013-2.977-2.013-4.766.034-3.72 3.072-6.734 6.85-6.796 1.844-.013 3.615.708 4.912 2 1.296 1.29 2.008 3.043 1.974 4.859zm-3.456-.068c.01-1.18-.621-2.275-1.655-2.873-1.033-.598-2.312-.608-3.354-.025-1.043.582-1.69 1.667-1.7 2.847-.014 1.824 1.476 3.314 3.328 3.328 1.853.015 3.367-1.453 3.381-3.277zM56.332 35.066c2.768.022 5.25 1.684 6.288 4.212 1.037 2.527.425 5.42-1.551 7.33-1.976 1.91-4.926 2.458-7.473 1.39-2.547-1.068-4.189-3.543-4.16-6.268.045-3.711 3.127-6.689 6.896-6.664zm3.275 6.686c.025-1.173-.598-2.268-1.627-2.859-1.03-.59-2.305-.585-3.329.015s-1.637 1.7-1.601 2.873c-.013.866.326 1.701.943 2.32.617.617 1.46.966 2.339.967 1.834-.03 3.3-1.51 3.284-3.316h-.01z" transform="translate(-607 -3469) translate(607 3469) translate(0 11.607)"/>
                    <path fill="#FFF" d="M44.432 28.035L36.975 28.035 36.975 35.419 29.22 35.419 29.22 28.096 21.536 28.096 21.536 20.414 29.116 20.414 29.116 12.962 36.877 12.962 36.877 20.32 44.432 20.32zM64.325 21.913H49.927V9.704c2.914 0 5.884-.015 8.864.03.266 0 .648.373.77.657 1.569 3.753 3.11 7.514 4.764 11.522zM20.184 41.727c-.01 1.181-.658 2.267-1.701 2.85-1.043.582-2.323.572-3.357-.026-1.034-.598-1.665-1.694-1.656-2.875.015-1.825 1.53-3.294 3.383-3.28 1.854.015 3.346 1.506 3.331 3.331zM59.616 41.752c.016 1.803-1.447 3.281-3.277 3.312-1.818-.04-3.272-1.498-3.279-3.288-.007-1.79 1.437-3.258 3.254-3.311 1.83.017 3.304 1.484 3.302 3.287z" transform="translate(-607 -3469) translate(607 3469) translate(0 11.607)"/>
                    <g fill="red">
                        <path d="M.036 5.58C.023 5.34-.002 5.131 0 4.907c-.023-.154.02-.31.12-.432.099-.12.245-.195.403-.206.272-.06.547-.107.822-.14.126 0 .228-.1.228-.224.118-.67.325-1.323.616-1.94.32-.753.99-1.307 1.797-1.49C4.873.233 5.823.392 6.58.908c.37.282.662.651.847 1.074.29.619.497 1.272.614 1.943.007.11.102.194.214.19.281.038.563.08.84.14.158.015.302.091.4.212.1.122.144.277.123.431v.119c-.013.177-.03.351-.043.548l-9.539.013z" transform="translate(-607 -3469) translate(607 3469) translate(0 11.607) translate(39.827 .14)"/>
                    </g>
                </g>
                <path d="M0 0H75V75H0z" transform="translate(-607 -3469) translate(607 3469)"/>
            </g>
        </g>
    </g>
</svg>
