<svg xmlns="http://www.w3.org/2000/svg" width="80" height="80" viewBox="0 0 80 80">
    <g fill="none" fill-rule="evenodd">
        <g>
            <g>
                <g>
                    <g transform="translate(-567 -3698) translate(518 3676) translate(49 16) translate(0 6)">
                        <circle cx="40" cy="40" r="40" fill="#03A3A6" fill-opacity=".09"/>
                        <g>
                            <g fill-rule="nonzero">
                                <path fill="#02A79C" d="M7.617 5.393h.78c1.071-.05 2.056.581 2.454 1.572 1.07 2.406 2.139 4.814 3.14 7.247.572 1.39.027 2.642-.76 3.801-.501.699-1.068 1.349-1.692 1.94-.163.124-.269.308-.294.51-.025.203.033.407.16.566 2.614 4.412 6.578 7.874 11.312 9.88 1.083.464 1.466.353 2.199-.594.606-.776 1.213-1.558 1.848-2.314.74-1.082 2.183-1.432 3.341-.812 2.486 1.064 4.96 2.157 7.439 3.231.843.301 1.372 1.134 1.284 2.02.01 1.57-.345 3.122-1.04 4.532-1.04 1.933-2.815 2.95-4.758 3.75-2.297.841-4.807.915-7.15.208-8.498-2.017-15.019-6.901-20.218-13.725-1.449-1.728-2.74-3.58-3.857-5.537-1.725-3.373-2.41-6.861-1.16-10.56.423-1.241 1.071-2.395 1.912-3.405 1.176-1.584 3.087-2.456 5.06-2.31z" transform="translate(17.6 18.526) translate(.533 .674)"/>
                                <path fill="#0D294A" d="M29.018 25.074c-1.99-.007-3.95-.484-5.72-1.391-.43-.25-.956-.272-1.405-.057-1.456.63-2.934 1.217-4.404 1.817-.157.067-.321.12-.49.155-.38.119-.795.007-1.064-.285-.213-.284-.235-.667-.054-.972.541-1.303 1.055-2.62 1.638-3.904.441-.898.441-1.95 0-2.847-2.217-4.99-.932-10.834 3.178-14.444C24.806-.464 30.792-1.01 35.49 1.8c4.699 2.81 7.027 8.325 5.755 13.632-1.273 5.306-5.852 9.181-11.319 9.576-.307.024-.608.044-.908.065z" transform="translate(17.6 18.526) translate(.533 .674)"/>
                            </g>
                            <g>
                                <path d="M0 0H41.6V41.6H0z" transform="translate(17.6 18.526) translate(.533 .674)"/>
                            </g>
                            <path stroke="#FFF" stroke-linecap="round" stroke-linejoin="round" d="M21.333 11.874L38.4 11.874M21.333 15.074L38.4 15.074M23.467 18.274L36.267 18.274" transform="translate(17.6 18.526)"/>
                        </g>
                    </g>
                </g>
            </g>
        </g>
    </g>
</svg>
