<svg xmlns="http://www.w3.org/2000/svg" width="50" height="50" viewBox="0 0 50 50">
    <defs>
        <linearGradient id="prefix__a" x1="8.69%" x2="121.044%" y1="33.854%" y2="83.25%">
            <stop offset="0%" stop-color="#02B2B2"/>
            <stop offset="100%" stop-color="#027B7B"/>
        </linearGradient>
        <linearGradient id="prefix__b" x1="52.121%" x2="122.417%" y1="6.622%" y2="153.293%">
            <stop offset="0%" stop-opacity="0"/>
            <stop offset="100%" stop-opacity=".5"/>
        </linearGradient>
        <linearGradient id="prefix__c" x1="52.121%" x2="122.417%" y1="11.875%" y2="140.785%">
            <stop offset="0%" stop-opacity="0"/>
            <stop offset="100%" stop-opacity=".5"/>
        </linearGradient>
    </defs>
    <g fill="none">
        <g>
            <path fill="url(#prefix__a)" d="M0.018 0.251L29.668 0.251 24.828 17.101 3.831 17.101z" transform="translate(13 14)"/>
            <path d="M0.018 0.251L29.668 0.251 24.828 17.101 3.831 17.101z" transform="translate(13 14)"/>
        </g>
        <path fill="#273B7A" stroke="#273B7A" stroke-width=".5" d="M43.692 14.339c-.277-.356-.707-.565-1.165-.566H13.169l-1.234-4.684C11.77 8.45 11.184 8.003 10.51 8H4.473c-.818.005-1.477.655-1.473 1.454 0 .804.66 1.456 1.473 1.456H9.37l1.222 4.64c.007.03.014.059.023.088l4.547 17.273c.168.641.754 1.089 1.426 1.089h21.38c.67 0 1.257-.448 1.426-1.089l4.558-17.317c.115-.436.02-.9-.26-1.258v.003zM36.828 31.09H17.726l-3.792-14.406h26.688L36.828 31.09z"/>
        <g transform="translate(13 35)">
            <ellipse cx="5" cy="5.626" fill="#000" rx="5" ry="4.889"/>
            <ellipse cx="5" cy="5.626" fill="#273B7A" rx="5" ry="4.889"/>
            <ellipse cx="5" cy="5.626" fill="url(#prefix__b)" rx="5" ry="4.889"/>
        </g>
        <g transform="translate(30 35)">
            <ellipse cx="6.285" cy="5.626" fill="#000" rx="5.333" ry="4.889"/>
            <ellipse cx="6.285" cy="5.626" fill="#273B7A" rx="5.333" ry="4.889"/>
            <ellipse cx="6.285" cy="5.626" fill="url(#prefix__c)" rx="5.333" ry="4.889"/>
        </g>
    </g>
</svg>
