<svg xmlns="http://www.w3.org/2000/svg" width="27" height="27" viewBox="0 0 27 27">
    <g fill="none" fill-rule="evenodd">
        <g>
            <g>
                <g>
                    <g>
                        <g>
                            <g fill="#FFF" fill-rule="nonzero">
                                <path d="M6.191 10.105h10.211c.251 0 .472-.15.541-.366l2.252-7.074c.049-.152.015-.316-.092-.443-.106-.126-.273-.2-.45-.2H4.894L4.491.395C4.433.164 4.205 0 3.94 0H.563C.252 0 0 .226 0 .505c0 .28.252.506.563.506h2.926L5.522 9.22c-.598.233-1.018.769-1.018 1.39 0 .836.758 1.516 1.689 1.516h10.209c.31 0 .563-.226.563-.505s-.252-.505-.563-.505H6.192c-.31 0-.562-.227-.562-.505 0-.279.252-.505.561-.506zm11.716-7.073l-1.93 6.063H6.644l-1.5-6.063h12.763zM5.124 13.945c0 1.003.863 1.82 1.922 1.82 1.06 0 1.922-.817 1.922-1.82 0-1.003-.862-1.819-1.922-1.819s-1.922.816-1.922 1.82zm1.922-.606c.353 0 .64.272.64.606 0 .335-.287.607-.64.607-.353 0-.64-.272-.64-.607 0-.334.287-.606.64-.606zM12.811 13.945c0 1.003.862 1.82 1.922 1.82s1.921-.817 1.921-1.82c0-1.003-.862-1.819-1.921-1.819-1.06 0-1.922.816-1.922 1.82zm1.922-.606c.353 0 .64.272.64.606 0 .335-.287.607-.64.607-.353 0-.64-.272-.64-.607 0-.334.287-.606.64-.606z" transform="translate(-304 -4225) translate(30 4219) translate(276 8) translate(1.441 4.32)"/>
                            </g>
                            <path d="M0 0H23.06V23.04H0z" transform="translate(-304 -4225) translate(30 4219) translate(276 8)"/>
                        </g>
                    </g>
                </g>
            </g>
        </g>
    </g>
</svg>
