<svg xmlns="http://www.w3.org/2000/svg" width="80" height="80" viewBox="0 0 80 80">
    <g fill="none" fill-rule="evenodd">
        <g>
            <g>
                <g fill-rule="nonzero">
                    <g>
                        <path fill="#018989" d="M4.823 0L27.731 0 27.731 45.095 4.823 45.095z" transform="translate(-948 -1211) translate(948 1211) translate(5 11) rotate(-90 19.905 8.568)"/>
                        <path fill="#00AAAE" d="M0 4.747L22.909 4.747 22.909 49.842 0 49.842z" transform="translate(-948 -1211) translate(948 1211) translate(5 11) rotate(-90 19.905 8.568)"/>
                        <path fill="#018989" d="M4.823 11.867v30.854c1.332 0 2.411 1.063 2.411 2.374h8.44c0-1.311 1.08-2.374 2.412-2.374V11.867c-1.332 0-2.412-1.062-2.412-2.373h-8.44c0 1.31-1.08 2.373-2.411 2.373z" transform="translate(-948 -1211) translate(948 1211) translate(5 11) rotate(-90 19.905 8.568)"/>
                    </g>
                    <g>
                        <path fill="#F2CBA7" d="M39.142 8.132l2.198-.968c4.998-1.936 11.996-5.283 11.996-5.283 1.92-1.065 4.358-.445 5.46 1.412 1.098 1.86 0 3.871-1.461 5.285 0 0-17.994 14.071-23.992 14.071-5.998 0-23.992-3.871-23.992-3.871V1.357c9.997-1.607 13.416.968 27.99 5.478.801.33 1.34.794 1.68 1.357l.12-.06z" transform="translate(-948 -1211) translate(948 1211) translate(5 11) translate(9 35.4)"/>
                        <g fill="#E1B494">
                            <path d="M49.535 1.554C49.133.875 48.55.367 47.881.04c-.244 1.079-.956 2.105-1.806 2.928 0 0-15.994 13.716-21.992 13.716-4.78 0-19.153-2.099-23.992-3.097v3.452s17.994 3.871 23.992 3.871c5.998 0 23.992-14.07 23.992-14.07 1.46-1.415 2.56-3.426 1.46-5.286z" transform="translate(-948 -1211) translate(948 1211) translate(5 11) translate(9 35.4) translate(9.26 1.739)"/>
                            <path d="M26.682 12.273c1.62 0 3.266-.87 4.356-2.355 1.048-1.427 1.259-3.055.583-4.289l-1.74.764-.077.038c.013.02.042.058.052.073.334.566.159 1.465-.449 2.293-.667.912-1.9 1.728-3.145 1.505-1.96-.348-13.548-1.879-14.04-1.943-.541-.076-1.05.298-1.125.828-.074.53.309 1.017.855 1.089.12.015 12.035 1.59 13.947 1.928.26.047.521.07.783.07z" transform="translate(-948 -1211) translate(948 1211) translate(5 11) translate(9 35.4) translate(9.26 1.739)"/>
                        </g>
                        <path fill="#007474" d="M1.458 21.681h-.022c-.55 0-.988.435-.988.968h2.01c0-.533-.45-.968-1-.968z" transform="translate(-948 -1211) translate(948 1211) translate(5 11) translate(9 35.4)"/>
                    </g>
                    <path fill="#121149" d="M19.487 57.219c0 1.052-.861 1.904-1.923 1.904h-4.641c-1.062 0-1.923-.852-1.923-1.904V33.904c0-1.052.86-1.904 1.923-1.904h4.64c1.063 0 1.924.852 1.924 1.904V57.22z" transform="translate(-948 -1211) translate(948 1211) translate(5 11)"/>
                </g>
                <path d="M0 0H80V80H0z" transform="translate(-948 -1211) translate(948 1211)"/>
            </g>
        </g>
    </g>
</svg>
