<svg xmlns="http://www.w3.org/2000/svg" width="75" height="75" viewBox="0 0 75 75">
    <g fill="none" fill-rule="evenodd">
        <g fill-rule="nonzero">
            <g transform="translate(-253 -5319) translate(253 5319)">
                <path fill="#00AAAE" d="M65 27.553C65 50.776 38.5 74 38.5 74S12 50.776 12 27.553C12 12.888 23.864 1 38.5 1S65 12.888 65 27.553z"/>
                <path fill="#018989" d="M23 56.058C27.489 62.591 32.653 68.607 38.402 74c0 0 21.905-19.67 25.598-41-10.136 11.546-24.968 19.925-41 23.058z"/>
                <circle cx="38.5" cy="27.5" r="21.5" fill="#FFF"/>
                <path fill="#F75632" d="M35.182 23.182L35.182 13 42.818 13 42.818 23.182 53 23.182 53 30.818 42.818 30.818 42.818 41 35.182 41 35.182 30.818 25 30.818 25 23.182z"/>
            </g>
        </g>
    </g>
</svg>
