<svg xmlns="http://www.w3.org/2000/svg" width="24" height="25" viewBox="0 0 24 25">
    <g fill="none" fill-rule="evenodd">
        <g fill="#00AAAE" fill-rule="nonzero">
            <g>
                <path d="M11.5 22.001c-1.347-1.507-2.6-3.096-3.75-4.758-.985-1.401-1.847-2.885-2.578-4.434C4.473 11.422 4.074 9.903 4 8.351c-.002-1.96.792-3.836 2.2-5.2 2.955-2.868 7.655-2.868 10.61 0 1.404 1.365 2.194 3.242 2.19 5.2-.074 1.552-.473 3.07-1.172 4.458-.73 1.55-1.593 3.033-2.578 4.434-1.15 1.662-2.403 3.251-3.75 4.758zm0-16.275c-1.443.029-2.593 1.217-2.574 2.66.02 1.444 1.2 2.601 2.644 2.592 1.443-.01 2.608-1.183 2.608-2.627-.016-1.463-1.214-2.638-2.678-2.625z" transform="translate(-64 -473) translate(40 445) translate(24 29)"/>
            </g>
        </g>
    </g>
</svg>
