<svg xmlns="http://www.w3.org/2000/svg" width="24" height="25" viewBox="0 0 24 25">
    <g fill="none" fill-rule="evenodd">
        <g fill="#00AAAE" fill-rule="nonzero">
            <g>
                <g>
                    <path d="M23.644 11.151l-10.8-10.8c-.469-.468-1.23-.468-1.693 0l-10.8 10.8c-.468.468-.468 1.23 0 1.698l10.8 10.794v.006c.468.468 1.23.468 1.698 0l10.8-10.8c.469-.474.469-1.23-.005-1.698zm-9.247 3.846v-3h-4.8v3.6h-2.4v-4.8c0-.666.534-1.2 1.2-1.2h6v-3l4.2 4.2-4.2 4.2z" transform="translate(-371 -469) translate(40 445) translate(331 25)"/>
                </g>
            </g>
        </g>
    </g>
</svg>
