<svg xmlns="http://www.w3.org/2000/svg" width="80" height="80" viewBox="0 0 80 80">
    <g fill="none" fill-rule="evenodd">
        <g>
            <g transform="translate(-1160 -1914) translate(1160 1914)">
                <circle cx="40" cy="40" r="40" fill="#03A3A6" fill-opacity=".09"/>
                <g fill-rule="nonzero">
                    <path fill="#121149" d="M47.467 4.521v7.212H38.4V4.521C38.396 2.028 40.419.004 42.918 0h.023c2.496 0 4.521 2.017 4.526 4.507v.014z" transform="translate(16.533 20.267)"/>
                    <path fill="#00AAAE" d="M11.296 0h31.37c-2.404.004-4.351 1.98-4.347 4.412v32.331c-.004 3.273-2.628 5.924-5.863 5.924h-.018c-.136 0-.27-.005-.403-.015-3.074-.218-5.457-2.805-5.453-5.921v-3.834H6.933v-.053L7.141 4.15C7.14 1.839 9.01 0 11.296 0zm17.096 14.03V8.36l-6.183-3.072-6.182 3.063v5.68c0 1.454.93 3.234 2.119 4.054l4.063 2.802 4.063-2.802c1.188-.82 2.12-2.6 2.12-4.054z" transform="translate(16.533 20.267)"/>
                    <path fill="#121149" d="M32 42.652v.015H5.861c-3.235 0-5.858-2.605-5.862-5.82v-3.78h26.548v3.767c-.003 3.062 2.379 5.605 5.452 5.818z" transform="translate(16.533 20.267)"/>
                    <path fill="#273B7A" d="M28.8 7.95v5.818c0 1.49-.965 3.317-2.195 4.158L22.4 20.8l-4.206-2.874C16.963 17.085 16 15.26 16 13.768V7.942L22.4 4.8l6.4 3.15z" transform="translate(16.533 20.267)"/>
                    <path fill="#00AAAE" d="M21.616 15.467h-.002c-.213-.001-.417-.087-.566-.238l-1.61-1.633c-.205-.203-.285-.5-.21-.78.075-.278.293-.495.572-.568.278-.072.574.011.774.218l1.045 1.059 2.615-2.623c.313-.314.82-.314 1.132 0 .312.314.312.822 0 1.135l-3.184 3.194c-.15.151-.354.236-.566.236z" transform="translate(16.533 20.267)"/>
                    <g fill="#018989">
                        <path d="M19.925 1.662H.817c-.44 0-.796-.353-.796-.79 0-.436.356-.79.796-.79h19.108c.44 0 .796.354.796.79 0 .437-.356.79-.796.79zM19.925 5.316H.817c-.44 0-.796-.353-.796-.79 0-.436.356-.79.796-.79h19.108c.44 0 .796.354.796.79 0 .437-.356.79-.796.79z" transform="translate(16.533 20.267) translate(12.267 24)"/>
                    </g>
                </g>
            </g>
        </g>
    </g>
</svg>
