<svg xmlns="http://www.w3.org/2000/svg" width="80" height="80" viewBox="0 0 80 80">
    <g fill="none" fill-rule="evenodd">
        <g>
            <g transform="translate(-839 -1914) translate(839 1914)">
                <circle cx="40" cy="40" r="40" fill="#03A3A6" fill-opacity=".09"/>
                <g fill-rule="nonzero">
                    <path fill="#F2CBA7" d="M44.5 13.45L35.734 4.8v34.667h11.734V20.475c0-2.637-1.068-5.165-2.966-7.024z" transform="translate(13.867 20.267)"/>
                    <path fill="#018989" d="M6.717 33.097L.22 16.256c-.652-1.69.192-3.59 1.886-4.241L32.77.22c1.693-.651 3.594.191 4.246 1.883l6.497 16.841c.652 1.69-.192 3.59-1.885 4.241L10.965 34.98c-1.694.651-3.595-.192-4.248-1.883z" transform="translate(13.867 20.267)"/>
                    <path fill="#121149" d="M39.168 8L2.667 22.016 5.097 28.267 41.6 14.257z" transform="translate(13.867 20.267)"/>
                    <path fill="#018989" d="M0 21.262V3.272C0 1.464 1.473 0 3.289 0h32.889c1.816 0 3.289 1.465 3.289 3.271v17.991c0 1.807-1.473 3.271-3.29 3.271H3.29C1.473 24.533 0 23.07 0 21.263z" transform="translate(13.867 20.267)"/>
                    <path fill="#00AAAE" d="M36.176 0H32.68L8 24.533h28.176c1.817 0 3.29-1.464 3.29-3.27V3.27c0-1.806-1.473-3.271-3.29-3.271zM3.2 13.333L6.4 13.333 6.4 14.933 3.2 14.933zM3.2 18.133L6.4 18.133 6.4 19.733 3.2 19.733z" transform="translate(13.867 20.267)"/>
                    <path fill="#00AAAE" d="M18.133 18.133L21.333 18.133 21.333 19.733 18.133 19.733zM8 13.333L11.2 13.333 11.2 14.933 8 14.933zM12.8 13.333L16 13.333 16 14.933 12.8 14.933z" transform="translate(13.867 20.267)"/>
                    <path fill="#273B7A" d="M35.533 38.933h8.934c1.657 0 3 1.343 3 3v2c0 1.657-1.343 3-3 3h-8.934c-1.657 0-3-1.343-3-3v-2c0-1.657 1.343-3 3-3z" transform="translate(13.867 20.267)"/>
                    <path fill="#F2CBA7" d="M30.086 14.882c-1.396-1.357-3.655-1.353-5.046.01-1.345 1.317-1.391 3.434-.106 4.807l6.744 7.183c-2.027 3.463-1.94 7.734.225 11.117l.598.934H43.2V27.685L30.086 14.882z" transform="translate(13.867 20.267)"/>
                    <path fill="#121149" d="M35.2 41.6L36.8 41.6 36.8 43.2 35.2 43.2z" transform="translate(13.867 20.267)"/>
                    <path fill="#00AAAE" d="M3.2 8.747v-4.16c0-.766.62-1.387 1.387-1.387h4.16c.766 0 1.386.62 1.386 1.387v4.16c0 .766-.62 1.386-1.386 1.386h-4.16c-.766 0-1.387-.62-1.387-1.386z" transform="translate(13.867 20.267)"/>
                </g>
            </g>
        </g>
    </g>
</svg>
