<svg xmlns="http://www.w3.org/2000/svg" width="80" height="80" viewBox="0 0 80 80">
    <g fill="none" fill-rule="evenodd">
        <g>
            <g transform="translate(-200 -1914) translate(200 1914)">
                <circle cx="40" cy="40" r="40" fill="#03A3A6" fill-opacity=".09"/>
                <g fill-rule="nonzero">
                    <g>
                        <path fill="#F2CBA7" d="M20.885 51.088H8.177v-4.69c0-.913-.37-1.786-1.026-2.419l-3.548-3.87c-1.347-1.47-2.134-3.369-2.224-5.362l-.311-6.909c-.032-.704.53-1.292 1.233-1.292 1.243 0 2.364.746 2.847 1.894l.535 1.634c.147.447.602.715 1.063.627.438-.085.755-.468.757-.916l.057-17.99c0-1.357 1.054-2.513 2.408-2.562 1.42-.05 2.589 1.09 2.589 2.503v9.5c0-1.413 1.168-2.553 2.59-2.503 1.353.049 2.406 1.205 2.406 2.563v1.818c0-1.413 1.169-2.553 2.59-2.502 1.354.048 2.407 1.205 2.407 2.563v2.504c0-1.414 1.168-2.554 2.59-2.503 1.353.048 2.407 1.205 2.407 2.563v9.75c0 1.715-.53 3.388-1.514 4.79l-1.424 2.027c-.985 1.402-1.514 3.074-1.514 4.788v3.994h-2.21z" transform="translate(26.133 12.267)"/>
                        <path fill="#E1B494" d="M27.547 25.74v9.75c0 1.714-.53 3.387-1.514 4.788l-1.424 2.028c-.985 1.402-1.514 3.074-1.514 4.789v3.993H20.75v-3.993c0-1.715.529-4.302 1.513-5.704l1.425-2.027c.984-1.402 1.513-3.075 1.513-4.79V25.74c0-.968-.535-1.833-1.332-2.268.375-.203.81-.311 1.27-.295 1.355.048 2.408 1.205 2.408 2.563zM22.541 22.97v6.899c0 .577-.467 1.044-1.043 1.044-.574 0-1.042-.467-1.042-1.044V23.73c0-1.078-.37-2.123-1.046-2.96l-.05-.063c.248-.072.51-.106.782-.096 1.286.045 2.3 1.09 2.4 2.357zM17.557 29.869c0 .577-.468 1.044-1.044 1.044-.574 0-1.041-.467-1.041-1.044v-7.615c0-1.078-.37-2.124-1.047-2.962l-.307-.378c.315-.128.663-.193 1.028-.18 1.354.048 2.41 1.205 2.41 2.563v8.572zM12.572 29.869c0 .577-.468 1.044-1.044 1.044-.574 0-1.041-.467-1.041-1.044V12.676c0-1.078-.37-2.124-1.047-2.96l-.26-.32c.246-.096.51-.153.787-.163 1.422-.05 2.59 1.09 2.59 2.502l.015 18.134z" transform="translate(26.133 12.267)"/>
                        <path fill="#273B7A" d="M25.43 54.514v-5.028c0-.526-.422-.953-.942-.953H7.172c-.52 0-.942.427-.942.953v5.028c0 .526.422.953.942.953h17.316c.52 0 .942-.427.942-.953z" transform="translate(26.133 12.267)"/>
                        <path fill="#121149" d="M25.43 49.485v5.03c0 .526-.438.952-.978.952h-2.755c.54 0 .978-.426.978-.952v-5.03c0-.525-.437-.952-.978-.952h2.755c.54 0 .978.427.978.952z" transform="translate(26.133 12.267)"/>
                        <path fill="#018989" d="M7.77 16.533c-.304-1.008-.597-2.018-.817-2.986-1.445-.836-2.429-2.357-2.429-4.116 0-2.644 2.2-4.793 4.905-4.793s4.905 2.15 4.905 4.793c0 .364-.05.715-.128 1.055.47 1.01.849 2.147 1.18 3.303.936-1.219 1.51-2.716 1.51-4.358 0-4.032-3.34-7.298-7.467-7.298-4.126 0-7.466 3.266-7.466 7.298 0 3.473 2.485 6.365 5.807 7.102z" transform="translate(26.133 12.267) rotate(17 9.43 9.333)"/>
                    </g>
                </g>
            </g>
        </g>
    </g>
</svg>
