<svg xmlns="http://www.w3.org/2000/svg" width="80" height="80" viewBox="0 0 80 80">
    <g fill="none" fill-rule="evenodd">
        <g>
            <g transform="translate(-525 -1914) translate(525 1914)">
                <circle cx="40" cy="40" r="40" fill="#03A3A6" fill-opacity=".09"/>
                <g fill-rule="nonzero">
                    <path fill="#121149" d="M0 0L29.333 0 29.333 40.533 0 40.533z" transform="translate(24 21.867)"/>
                    <path fill="#00AAAE" d="M29.333 0L29.333 36.8 7.333 36.8 0 29.44 0 0z" transform="translate(24 21.867)"/>
                    <path fill="#B7E7EB" d="M0 29.333L7.467 29.333 7.467 36.8z" transform="translate(24 21.867)"/>
                    <g transform="translate(24 21.867) translate(4.267 4.8)">
                        <ellipse cx="10.133" cy="2.746" fill="#273B7A" rx="2.764" ry="2.746"/>
                        <path fill="#018989" d="M5.527 7.322L19.345 7.322 19.345 9.153 5.527 9.153zM0 7.322L3.685 7.322 3.685 9.153 0 9.153zM0 10.983L15.661 10.983 15.661 12.814 0 12.814zM0 18.305L13.818 18.305 13.818 20.136 0 20.136zM5.527 21.966L20.267 21.966 20.267 23.797 5.527 23.797zM0 14.644L14.739 14.644 14.739 16.475 0 16.475z"/>
                    </g>
                    <path fill="#273B7A" d="M44.032 5.545L27.177 22.4l-3.71-3.71L40.322 1.835c.492-.492 1.159-.768 1.855-.768 1.448 0 2.623 1.174 2.623 2.623 0 .696-.276 1.363-.768 1.855z" transform="translate(24 21.867)"/>
                    <path fill="#D6D6D4" d="M39.672 16.533l-1.272-1.32 4.761-4.945c.24-.248.373-.584.373-.935 0-.35-.134-.686-.373-.934L38.4 3.455l1.272-1.322 4.762 4.945c.576.598.9 1.41.9 2.255 0 .846-.324 1.658-.9 2.256l-4.762 4.944zM23.289 18.667L21.333 24.533 27.2 22.578z" transform="translate(24 21.867)"/>
                    <path fill="#D6D6D4" d="M33.285 8.553L35.13 8.559 35.148 13.778 33.303 13.772z" transform="translate(24 21.867) rotate(-45 34.217 11.165)"/>
                </g>
            </g>
        </g>
    </g>
</svg>
