<svg xmlns="http://www.w3.org/2000/svg" width="80" height="80" viewBox="0 0 80 80">
    <g fill="none" fill-rule="evenodd">
        <g>
            <g>
                <g transform="translate(-93 -4465) translate(93 4465) translate(5)">
                    <path fill="#121149" fill-rule="nonzero" d="M8.822 30.268c-1.105 1.558-1.7 3.437-1.7 5.366v10.157c0 2.244 1.764 4.063 3.941 4.063h7.632L8.822 30.268z"/>
                    <path fill="#273B7A" fill-rule="nonzero" d="M33.83 46.86c.001-.86-.345-1.684-.963-2.291-.618-.608-1.457-.949-2.33-.947h-2.05l3.294 6.232c1.237-.497 2.046-1.68 2.048-2.994z"/>
                    <circle cx="25.372" cy="16.47" r="9.348" fill="#F2CBA7" fill-rule="nonzero"/>
                    <path fill="#018989" fill-rule="nonzero" d="M29.378 49.854L16.941 26.707h-1.082c-2.224-.001-4.376.768-6.066 2.168l11.266 20.979h8.319z"/>
                    <path fill="#121149" fill-rule="nonzero" d="M39.331 30.794c.846-.09 1.682-.218 2.51-.364-1.709-2.339-4.444-3.723-7.355-3.723h-2.105c-3.696 2.315-8.312 2.65-12.31.896l7.426 14.17h2.94c2.796 0 5.061 2.248 5.061 5.022 0 2.773-2.265 5.022-5.06 5.022H14.244v14.061h10.121v-8.035h2.024v8.035h10.122V51.817h2.387c-.905-2.388-1.371-4.918-1.375-7.469V30.99l1.808-.196z"/>
                    <path fill="#00AAAE" fill-rule="nonzero" d="M52.97 28.488c-4.028 2.078-8.405 3.389-12.909 3.866v11.448c.134 8.231 5.241 15.557 12.909 18.515 7.667-2.958 12.774-10.284 12.908-18.515V32.354c-4.504-.477-8.881-1.788-12.908-3.866zM50.693 51.08c-.388.388-1.017.388-1.404 0l-4.965-4.975 1.404-1.407 4.263 4.271 10.22-10.24 1.404 1.406-10.922 10.945z"/>
                    <path d="M0.89 0.89H72.11V72.11H0.89z"/>
                </g>
                <path fill="#F75632" fill-rule="nonzero" d="M68.284 11.716C60.73 4.16 50.684 0 40 0 29.316 0 19.27 4.16 11.716 11.716 4.16 19.27 0 29.316 0 40c0 10.684 4.16 20.73 11.716 28.284C19.27 75.84 29.316 80 40 80c10.684 0 20.73-4.16 28.284-11.716C75.84 60.73 80 50.684 80 40c0-10.684-4.16-20.73-11.716-28.284zM40.13 5.053c8.805 0 16.863 3.262 23.029 8.64L13.694 63.159c-5.379-6.166-8.641-14.224-8.641-23.03 0-19.34 15.735-35.075 35.076-35.075zm-.258 69.894c-8.805 0-16.863-3.262-23.029-8.64l49.464-49.465c5.379 6.166 8.641 14.224 8.641 23.03 0 19.34-15.735 35.075-35.076 35.075z" transform="translate(-93 -4465) translate(93 4465)"/>
            </g>
        </g>
    </g>
</svg>
