<svg xmlns="http://www.w3.org/2000/svg" width="80" height="80" viewBox="0 0 80 80">
    <g fill="none" fill-rule="evenodd">
        <g>
            <g>
                <g>
                    <g fill-rule="nonzero">
                        <g>
                            <path fill="#018989" d="M4.194 0L24.114 0 24.114 39.082 4.194 39.082z" transform="translate(-571 -4465) translate(571 4465) translate(4 5) translate(5 9) rotate(-90 17.824 7.894)"/>
                            <path fill="#00AAAE" d="M0 4.114L19.92 4.114 19.92 43.196 0 43.196z" transform="translate(-571 -4465) translate(571 4465) translate(4 5) translate(5 9) rotate(-90 17.824 7.894)"/>
                            <path fill="#018989" d="M4.194 10.285v26.74c1.158 0 2.097.921 2.097 2.057h7.339c0-1.136.939-2.057 2.097-2.057v-26.74c-1.158 0-2.097-.921-2.097-2.057H6.29c0 1.136-.938 2.057-2.096 2.057z" transform="translate(-571 -4465) translate(571 4465) translate(4 5) translate(5 9) rotate(-90 17.824 7.894)"/>
                        </g>
                        <g>
                            <path fill="#F2CBA7" d="M33.862 6.648l1.912-.84C40.12 4.132 46.205 1.23 46.205 1.23c1.67-.922 3.79-.385 4.747 1.224.956 1.612 0 3.355-1.27 4.58 0 0-15.646 12.195-20.862 12.195-5.216 0-20.862-3.355-20.862-3.355V.776c8.692-1.392 11.665.839 24.339 4.748.696.285 1.165.688 1.46 1.176l.105-.052z" transform="translate(-571 -4465) translate(571 4465) translate(4 5) translate(5 9) translate(8 32.08)"/>
                            <g fill="#E1B494">
                                <path d="M43.074 1.347c-.35-.589-.857-1.03-1.438-1.313-.212.936-.832 1.825-1.57 2.538 0 0-13.909 11.887-19.124 11.887-4.156 0-16.655-1.818-20.862-2.683v2.991s15.646 3.355 20.862 3.355c5.215 0 20.862-12.195 20.862-12.195 1.27-1.225 2.226-2.968 1.27-4.58z" transform="translate(-571 -4465) translate(571 4465) translate(4 5) translate(5 9) translate(8 32.08) translate(7.878 1.107)"/>
                                <path d="M23.202 10.637c1.409 0 2.84-.755 3.787-2.041.912-1.237 1.095-2.648.508-3.717l-1.513.662-.068.032.046.064c.29.49.138 1.27-.39 1.987-.581.79-1.652 1.498-2.736 1.304-1.704-.301-11.78-1.628-12.208-1.684-.47-.065-.914.26-.978.718-.065.459.268.881.743.944.104.013 10.466 1.377 12.128 1.67.226.041.453.061.68.061z" transform="translate(-571 -4465) translate(571 4465) translate(4 5) translate(5 9) translate(8 32.08) translate(7.878 1.107)"/>
                            </g>
                            <path fill="#007474" d="M1.094 18.39h-.02c-.478 0-.858.377-.858.84h1.747c0-.463-.39-.84-.87-.84z" transform="translate(-571 -4465) translate(571 4465) translate(4 5) translate(5 9) translate(8 32.08)"/>
                        </g>
                        <path fill="#121149" d="M16.945 50.59c0 .911-.749 1.65-1.672 1.65h-4.036c-.923 0-1.672-.739-1.672-1.65V30.384c0-.912.749-1.65 1.672-1.65h4.036c.923 0 1.672.738 1.672 1.65V50.59z" transform="translate(-571 -4465) translate(571 4465) translate(4 5) translate(5 9)"/>
                    </g>
                    <path d="M0 1H69V70H0z" transform="translate(-571 -4465) translate(571 4465) translate(4 5)"/>
                </g>
                <path fill="#F75632" fill-rule="nonzero" d="M68.284 11.716C60.73 4.16 50.684 0 40 0 29.316 0 19.27 4.16 11.716 11.716 4.16 19.27 0 29.316 0 40c0 10.684 4.16 20.73 11.716 28.284C19.27 75.84 29.316 80 40 80c10.684 0 20.73-4.16 28.284-11.716C75.84 60.73 80 50.684 80 40c0-10.684-4.16-20.73-11.716-28.284zM40.13 5.053c8.805 0 16.863 3.262 23.029 8.64L13.694 63.159c-5.379-6.166-8.641-14.224-8.641-23.03 0-19.34 15.735-35.075 35.076-35.075zm-.258 69.894c-8.805 0-16.863-3.262-23.029-8.64l49.464-49.465c5.379 6.166 8.641 14.224 8.641 23.03 0 19.34-15.735 35.075-35.076 35.075z" transform="translate(-571 -4465) translate(571 4465)"/>
            </g>
        </g>
    </g>
</svg>
