<svg xmlns="http://www.w3.org/2000/svg" width="87" height="67" viewBox="0 0 87 67">
    <defs>
        <radialGradient id="3wdhoq7r0a" cx="81.271%" cy="-121.88%" r="520.338%" fx="81.271%" fy="-121.88%" gradientTransform="matrix(.20359 0 0 1 .647 0)">
            <stop offset="0%" stop-color="#262261"/>
            <stop offset="61%" stop-color="#31415C"/>
            <stop offset="97%" stop-color="#354E5A"/>
        </radialGradient>
        <radialGradient id="zwl3z8zeob" cx="50%" cy="50%" r="50%" fx="50%" fy="50%">
            <stop offset="0%" stop-color="#B3B3B3"/>
            <stop offset="20%" stop-color="#ABABAB"/>
            <stop offset="52%" stop-color="#949494"/>
            <stop offset="90%" stop-color="#707070"/>
            <stop offset="100%" stop-color="#666"/>
        </radialGradient>
        <linearGradient id="le4gt5l4mc" x1="0%" x2="100.051%" y1="50.026%" y2="50.026%">
            <stop offset="6%" stop-color="#E74546"/>
            <stop offset="100%" stop-color="#933E1F"/>
        </linearGradient>
    </defs>
    <g fill="none" fill-rule="evenodd">
        <g>
            <g transform="translate(-193 -135) translate(180 111)">
                <path d="M0.157 0.696H113.28699999999999V113.826H0.157z"/>
                <path fill="#36475B" fill-rule="nonzero" d="M58.184 24.445v1.984H47.74s-3.455-.322-3.36 4.029c.096 4.351 0 29.97 0 29.97h-1.53V29.014s-.41-4.673 6.265-4.568c6.466.104 9.068 0 9.068 0z"/>
                <path fill="#231F20" fill-rule="nonzero" d="M49.116 26.063H50.116V28.648H49.116zM53.467 26.063H54.467V28.648H53.467z"/>
                <rect width="9.633" height="14.054" x="47.027" y="28.648" fill="#CDF1F9" fill-rule="nonzero" rx="3.03"/>
                <path fill="#04ABAF" fill-rule="nonzero" d="M96.413 60.411H39.49l-14.054-7.257c-3.563-1.814-7.923-.42-9.773 3.124l22.54 11.643.243-.46c.184.1.39.153.6.156h59.22c.731 0 1.326-.591 1.33-1.323v-2.767c-.023-1.738-1.446-3.13-3.184-3.116z"/>
                <path fill="url(#3wdhoq7r0a)" fill-rule="nonzero" d="M35.531 66.564l-19.867-10.26h-.06l-1.68 3.28c-.797 1.59-.174 3.525 1.4 4.352l18.85 9.781v.087h62.282c1.698 0 3.076-1.374 3.08-3.072v-4.168H35.532z"/>
                <path fill="#9CA6B3" fill-rule="nonzero" d="M39.743 73.761H87.475V78.095H39.743z"/>
                <path fill="#354E5A" fill-rule="nonzero" d="M33.069 82.254v-2.245s.444-1.74 3.15-1.74h52.823s3.376-.723 3.716 2v2.612h-2.306v-2.385h-54.59v2.35H33.07v-.592z"/>
                <circle cx="91.757" cy="86.153" r="4.273" fill="url(#zwl3z8zeob)" fill-rule="nonzero"/>
                <circle cx="91.844" cy="86.092" r="1.68" fill="#314153" fill-rule="nonzero"/>
                <circle cx="34.557" cy="86.153" r="4.273" fill="url(#zwl3z8zeob)" fill-rule="nonzero"/>
                <circle cx="34.653" cy="86.092" r="1.68" fill="#314153" fill-rule="nonzero"/>
                <path fill="#CD6062" fill-rule="nonzero" d="M47.61 35.793h8.476v4.481c0 1.024-.83 1.854-1.853 1.854h-4.195c-1.34 0-2.428-1.087-2.428-2.428v-3.907z"/>
                <path fill="#231F20" fill-rule="nonzero" d="M51.23 42.424H52.456999999999994V60.708H51.23z"/>
                <path fill="#354E5A" fill-rule="nonzero" d="M79.382 64.005c-2.445-6.692-6.962-6.64-6.962-6.64H47.967c-4.664-.53-5.117 3.046-5.117 3.046v7.832h2.445v-6.091c-.018-.501.083-1 .296-1.454.385-.523.987-.843 1.636-.87h2.437c3.716 0 18.649-.095 22.843 0 4.795.105 5.805 8.433 5.805 8.433H80.6l-1.219-4.256z"/>
                <rect width="16.926" height="16.926" x="71.228" y="27.325" fill="url(#le4gt5l4mc)" fill-rule="nonzero" rx="3.83"/>
                <path fill="#FFF" fill-rule="nonzero" d="M78.234 30.867H81.158V40.709H78.234z"/>
                <path fill="#FFF" fill-rule="nonzero" d="M78.229 30.871L81.153 30.871 81.153 40.714 78.229 40.714z" transform="rotate(-90 79.691 35.793)"/>
            </g>
        </g>
    </g>
</svg>
