<svg xmlns="http://www.w3.org/2000/svg" width="68" height="69" viewBox="0 0 68 69">
    <defs>
        <radialGradient id="chyg8ixh2b" cx="81.271%" cy="-121.88%" r="508.486%" fx="81.271%" fy="-121.88%" gradientTransform="matrix(.20833 0 0 1 .643 0)">
            <stop offset="0%" stop-color="#262261"/>
            <stop offset="61%" stop-color="#31415C"/>
            <stop offset="97%" stop-color="#354E5A"/>
        </radialGradient>
        <radialGradient id="7wqehwnumc" cx="50%" cy="50%" r="50%" fx="50%" fy="50%">
            <stop offset="0%" stop-color="#B3B3B3"/>
            <stop offset="20%" stop-color="#ABABAB"/>
            <stop offset="52%" stop-color="#949494"/>
            <stop offset="90%" stop-color="#707070"/>
            <stop offset="100%" stop-color="#666"/>
        </radialGradient>
        <linearGradient id="8xyxphajgd" x1="0%" x2="100.051%" y1="50.026%" y2="50.026%">
            <stop offset="6%" stop-color="#E74546"/>
            <stop offset="100%" stop-color="#933E1F"/>
        </linearGradient>
        <filter id="3e7rk3qxca" width="109.2%" height="113.7%" x="-4.6%" y="-6.4%" filterUnits="objectBoundingBox">
            <feOffset dy="2" in="SourceAlpha" result="shadowOffsetOuter1"/>
            <feGaussianBlur in="shadowOffsetOuter1" result="shadowBlurOuter1" stdDeviation="2"/>
            <feColorMatrix in="shadowBlurOuter1" result="shadowMatrixOuter1" values="0 0 0 0 0 0 0 0 0 0 0 0 0 0 0 0 0 0 0.207987325 0"/>
            <feMerge>
                <feMergeNode in="shadowMatrixOuter1"/>
                <feMergeNode in="SourceGraphic"/>
            </feMerge>
        </filter>
    </defs>
    <g fill="none" fill-rule="evenodd">
        <g>
            <g filter="url(#3e7rk3qxca)" transform="translate(-781 -228) translate(431 57)">
                <g>
                    <g transform="translate(340 163.062) translate(19 17)">
                        <path d="M0 0H50V50H0z"/>
                        <path fill="#36475B" fill-rule="nonzero" d="M25.781 10.938v.862h-4.787s-1.584-.14-1.54 1.75c.044 1.888 0 13.012 0 13.012h-.702v-13.64s-.187-2.03 2.872-1.984c2.964.046 4.157 0 4.157 0z"/>
                        <path fill="#231F20" fill-rule="nonzero" d="M21.692 11.719H22.692V12.719H21.692zM23.254 11.719H24.254V12.719H23.254z"/>
                        <rect width="3.906" height="6.25" x="21.094" y="12.5" fill="#CDF1F9" fill-rule="nonzero" rx="1.953"/>
                        <path fill="#04ABAF" fill-rule="nonzero" d="M42.357 26.699H17.455l-6.148-3.644c-1.56-.91-3.337.166-4.147 1.945l9.731 5.469.107-.232c.08.05.17.078.263.079h25.907c.32 0 .58-.297.582-.664v-1.39c-.01-.872-.633-1.57-1.393-1.563z"/>
                        <path fill="url(#chyg8ixh2b)" fill-rule="nonzero" d="M15.828 29.58L7.16 25h-.026L6.4 26.465c-.347.71-.076 1.573.611 1.942l8.223 4.367v.038h27.171c.74 0 1.342-.613 1.344-1.37V29.58H15.828z"/>
                        <path fill="#9CA6B3" fill-rule="nonzero" d="M17.188 32.813H38.282V35.157000000000004H17.188z"/>
                        <path fill="#354E5A" fill-rule="nonzero" d="M14.063 36.406v-1.12s.197-.868 1.401-.868h23.507s1.503-.36 1.654.999v1.302h-1.026v-1.19H15.306v1.172h-1.243v-.295z"/>
                        <circle cx="40.234" cy="37.891" r="1.953" fill="url(#7wqehwnumc)" fill-rule="nonzero"/>
                        <circle cx="40.625" cy="37.5" r="1" fill="#314153" fill-rule="nonzero"/>
                        <circle cx="15.234" cy="37.891" r="1.953" fill="url(#7wqehwnumc)" fill-rule="nonzero"/>
                        <circle cx="14.844" cy="37.5" r="1" fill="#314153" fill-rule="nonzero"/>
                        <path fill="#CD6062" fill-rule="nonzero" d="M21.094 15.625H25v2.21c0 .506-.382.915-.854.915h-1.933c-.618 0-1.12-.536-1.12-1.198v-1.927z"/>
                        <path fill="#231F20" fill-rule="nonzero" d="M22.656 18.75H23.656V26.563H22.656z"/>
                        <path fill="#354E5A" fill-rule="nonzero" d="M34.627 27.866C33.564 25 31.6 25.023 31.6 25.023H20.974c-2.027-.227-2.224 1.304-2.224 1.304v3.353h1.063v-2.608c-.008-.214.036-.428.128-.622.168-.224.43-.361.711-.373h1.06c1.614 0 8.104-.04 9.927 0 2.084.045 2.523 3.61 2.523 3.61h.994l-.53-1.821z"/>
                        <rect width="7.813" height="7.813" x="31.25" y="11.719" fill="url(#8xyxphajgd)" fill-rule="nonzero" rx="3.83"/>
                        <path fill="#FFF" fill-rule="nonzero" d="M34.375 13.281H35.938V17.969H34.375z"/>
                        <path fill="#FFF" fill-rule="nonzero" d="M34.375 13.281L35.938 13.281 35.938 17.969 34.375 17.969z" transform="rotate(-90 35.156 15.625)"/>
                    </g>
                </g>
            </g>
        </g>
    </g>
</svg>
