<svg xmlns="http://www.w3.org/2000/svg" width="60" height="60" viewBox="0 0 60 60">
    <defs>
        <linearGradient id="tunfosedba" x1="67.303%" x2="16.995%" y1="53.426%" y2="32.272%">
            <stop offset="0%" stop-color="#BCBCBC"/>
            <stop offset="41%" stop-color="#BABABA"/>
            <stop offset="57%" stop-color="#B3B3B3"/>
            <stop offset="69%" stop-color="#A7A7A7"/>
            <stop offset="79%" stop-color="#959595"/>
            <stop offset="88%" stop-color="#7E7E7E"/>
            <stop offset="96%" stop-color="#636363"/>
            <stop offset="100%" stop-color="#505050"/>
        </linearGradient>
        <linearGradient id="56fzgtkp8b" x1=".057%" x2="121.176%" y1="50.001%" y2="50.001%">
            <stop offset="0%" stop-color="#BCBCBC"/>
            <stop offset="41%" stop-color="#BABABA"/>
            <stop offset="57%" stop-color="#B3B3B3"/>
            <stop offset="69%" stop-color="#A7A7A7"/>
            <stop offset="79%" stop-color="#959595"/>
            <stop offset="88%" stop-color="#7E7E7E"/>
            <stop offset="96%" stop-color="#636363"/>
            <stop offset="100%" stop-color="#505050"/>
        </linearGradient>
        <linearGradient id="mdpgeu8voc" x1="-.088%" x2="99.298%" y1="51.186%" y2="51.186%">
            <stop offset="0%" stop-color="#37A1DB"/>
            <stop offset="100%" stop-color="#045287"/>
        </linearGradient>
        <linearGradient id="la6l6pj08d" x1="-.129%" x2="100.138%" y1="49.825%" y2="49.825%">
            <stop offset="0%" stop-color="#37A1DB"/>
            <stop offset="100%" stop-color="#045287"/>
        </linearGradient>
        <linearGradient id="9ivouuqi3e" x1="-.109%" x2="99.267%" y1="50.006%" y2="50.006%">
            <stop offset="0%" stop-color="#37A1DB"/>
            <stop offset="100%" stop-color="#045287"/>
        </linearGradient>
        <linearGradient id="n0nlk90w7f" x1=".122%" x2="100.045%" y1="50.178%" y2="50.178%">
            <stop offset="0%" stop-color="#37A1DB"/>
            <stop offset="100%" stop-color="#045287"/>
        </linearGradient>
        <linearGradient id="dirk0onxgg" x1="-.028%" x2="100.065%" y1="49.924%" y2="49.924%">
            <stop offset="0%" stop-color="#37A1DB"/>
            <stop offset="100%" stop-color="#045287"/>
        </linearGradient>
        <linearGradient id="99i26v8v8h" x1=".227%" x2="100.227%" y1="50.045%" y2="50.045%">
            <stop offset="0%" stop-color="#37A1DB"/>
            <stop offset="100%" stop-color="#045287"/>
        </linearGradient>
        <linearGradient id="5qstoyv3hi" x1=".294%" x2="155.941%" y1="50.118%" y2="50.118%">
            <stop offset="0%" stop-color="#BCBCBC"/>
            <stop offset="41%" stop-color="#BABABA"/>
            <stop offset="57%" stop-color="#B3B3B3"/>
            <stop offset="69%" stop-color="#A7A7A7"/>
            <stop offset="79%" stop-color="#959595"/>
            <stop offset="88%" stop-color="#7E7E7E"/>
            <stop offset="96%" stop-color="#636363"/>
            <stop offset="100%" stop-color="#505050"/>
        </linearGradient>
        <linearGradient id="wu66bbavjj" x1=".276%" x2="100.015%" y1="50.085%" y2="50.085%">
            <stop offset="0%" stop-color="#F20365"/>
            <stop offset="100%" stop-color="#AE123E"/>
        </linearGradient>
    </defs>
    <g fill="none" fill-rule="evenodd">
        <g>
            <g transform="translate(-158 -78) translate(158 78)">
                <path fill="url(#tunfosedba)" fill-rule="nonzero" d="M27.19 33.158c-.093 0-.14 0-.234-.045-3.521-1.18-6.76-3.04-9.484-5.536-2.958-2.722-4.93-6.124-5.634-9.527-.657-3.221-.047-6.306 1.643-8.348 1.315-1.77 3.428-2.858 5.681-2.858 2.019-.046 3.944.816 5.259 2.268.234.272.187.726-.094.953-.282.227-.752.181-.986-.09-1.033-1.135-2.536-1.77-4.132-1.77-1.83 0-3.521.862-4.601 2.314-1.409 1.77-1.925 4.4-1.362 7.259.61 3.13 2.442 6.306 5.212 8.847 2.582 2.359 5.634 4.128 8.967 5.263.376.136.564.499.423.862-.094.226-.376.408-.657.408z"/>
                <path fill="url(#56fzgtkp8b)" fill-rule="nonzero" d="M27.548 33.158c-.376 0-.706-.272-.706-.68 0-.273.188-.545.471-.636 3.343-1.134 6.404-2.904 8.993-5.218 2.778-2.54 4.662-5.717 5.274-8.847.565-2.859.047-5.49-1.366-7.26-1.083-1.452-2.778-2.314-4.614-2.314-1.554-.045-3.06.59-4.144 1.724-.235.318-.659.363-.988.137-.33-.227-.377-.636-.142-.953 1.319-1.452 3.25-2.269 5.227-2.269 2.26 0 4.379 1.089 5.697 2.813 1.695 2.087 2.307 5.127 1.648 8.349-.659 3.403-2.684 6.805-5.65 9.528-2.731 2.495-5.933 4.355-9.464 5.58-.047.046-.141.046-.236.046z"/>
                <path fill="url(#mdpgeu8voc)" fill-rule="nonzero" d="M24.668 8.524c-.665-.413-1.33-.775-2.042-1.084-.523-.207-1.14.051-1.425.567-.285.517-.143 1.24.285 1.6.617.517 1.235.981 1.947 1.342.19.104.38.104.57.104.38 0 .76-.258.95-.62l.143-.258c.332-.568.142-1.29-.333-1.651-.047.051-.095.051-.095 0z"/>
                <path fill="url(#la6l6pj08d)" fill-rule="nonzero" d="M33.535 8.013c-.288-.566-.91-.773-1.437-.566-.719.309-1.437.67-2.06 1.081-.527.31-.718 1.03-.43 1.597 0 0 0 .052.047.052l.144.257c.191.361.575.619.958.619.191 0 .383-.052.574-.103.671-.361 1.342-.825 1.916-1.34.431-.412.575-1.082.288-1.597z"/>
                <path fill="url(#9ivouuqi3e)" fill-rule="nonzero" d="M27.254 33.68c-.136 0-.272-.044-.363-.089-3.498-1.161-6.678-3.081-9.312-5.537-.454-.402-.091-.715.318-1.161.409-.447.772-.804 1.18-.402 2.454 2.277 5.36 3.974 8.54 5.09.591.135.909.76.773 1.34-.137.447-.59.804-1.136.76z"/>
                <path fill="url(#n0nlk90w7f)" fill-rule="nonzero" d="M27.412 33.684c-.594 0-1.096-.491-1.096-1.072 0-.447.274-.849.73-1.028 3.198-1.072 6.122-2.815 8.589-5.093.457-.402.777-.045 1.188.402.41.447.776.76.365 1.162-2.695 2.457-5.893 4.333-9.365 5.54-.137.045-.274.09-.41.09z"/>
                <path fill="url(#dirk0onxgg)" fill-rule="nonzero" d="M34.834 53.158c-.41 0-.774-.046-1.184-.091-2.233-.366-4.237-1.644-5.512-3.561-3.964-5.844-1.731-16.708-1.64-17.165.136-.548.683-.867 1.23-.73.5.137.865.639.774 1.187 0 .09-2.187 10.454 1.321 15.612.957 1.461 2.46 2.42 4.145 2.648 1.458.228 2.961-.137 4.146-1.05 1.321-.959 3.006-2.922 3.553-6.985.091-.547.592-.958 1.139-.867.547.091.957.593.865 1.141-.683 4.748-2.778 7.167-4.373 8.309-1.275 1.004-2.87 1.552-4.464 1.552z"/>
                <path fill="url(#99i26v8v8h)" fill-rule="nonzero" d="M43.421 43.158c-2.773 0-5-2.227-5-5s2.227-5 5-5 5 2.227 5 5-2.227 5-5 5z"/>
                <circle cx="43.421" cy="38.158" r="3.947" fill="url(#5qstoyv3hi)" fill-rule="nonzero"/>
                <circle cx="43.684" cy="38.421" r="2.105" fill="#FFF" fill-rule="nonzero"/>
                <path fill="#989FA0" fill-rule="nonzero" d="M43.395 41.053c-1.617 0-2.869-1.304-2.869-2.921 0-1.617 1.304-2.869 2.921-2.869 1.617 0 2.869 1.304 2.869 2.869 0 1.617-1.304 2.92-2.921 2.92zm.025-4.737c-1.045 0-1.841.846-1.841 1.842 0 1.045.846 1.842 1.841 1.842 1.045 0 1.841-.846 1.841-1.842.05-.996-.796-1.842-1.841-1.842z"/>
                <path fill="url(#wu66bbavjj)" fill-rule="nonzero" d="M35.628 16.897c-1.065-4.033-5.65-5.225-8.382-1.467-2.732-3.758-7.595-2.52-8.66 1.467-1.343 5.04 5.881 9.165 8.336 10.403.185.091.416.091.602 0 2.547-1.33 9.4-5.546 8.104-10.403z"/>
                <path stroke="#FFF" d="M20 19.879L22.466 19.879 23.177 16.842 23.319 20.526 25.69 20.526 26.923 18.385 27.492 20.526 30.526 20.526"/>
                <path d="M0 0H60V60H0z"/>
            </g>
        </g>
    </g>
</svg>
