<svg xmlns="http://www.w3.org/2000/svg" width="80" height="80" viewBox="0 0 80 80">
    <g fill="none" fill-rule="evenodd">
        <g>
            <g>
                <path d="M0 0H80V80H0z" transform="translate(-538 -5118) translate(538 5118)"/>
                <g>
                    <g transform="translate(-538 -5118) translate(538 5118) translate(19 11)">
                        <rect width="42" height="50" y="7" fill="#00AAAE" fill-rule="nonzero" rx="2"/>
                        <path fill="#121149" fill-rule="nonzero" d="M24.294 1.063c.873.953 1.366 2.249 1.37 3.602H30c.552 0 1 .447 1 1V11c0 .552-.448 1-1 1H12c-.552 0-1-.448-1-1V5.665c0-.553.448-1 1-1h4.335c-.008-1.356.487-2.657 1.371-3.602.916-.828 2.105-1.197 3.28-1.016 1.183-.186 2.383.182 3.308 1.016z"/>
                        <path fill="#FFF" fill-rule="nonzero" d="M22.37 2.595c-.619-.637-1.578-.779-2.35-.347-.771.431-1.167 1.33-.97 2.203.198.872.942 1.504 1.821 1.549h.206c.482-.031.94-.232 1.293-.568.402-.389.63-.928.63-1.493 0-.565-.228-1.104-.63-1.493v.149z"/>
                        <path fill="#FFF" d="M8 40.6h26v1.8H8v-1.8zm0-12.154h4.123l2.648-6.503c.087-.22.26-.398.48-.493.22-.095.47-.099.693-.012.218.105.39.285.482.505l4.002 10.273 3.581-13.539c.119-.474.602-.765 1.084-.653.27.082.49.278.601.534l4.213 9.68H34v1.752h-4.544c-.361.02-.692-.198-.812-.535l-3.581-7.838-3.612 13.658c-.04.301-.25.554-.541.653-.223.096-.476.096-.699 0-.223-.096-.395-.279-.475-.505l-4.153-10.748-2.016 4.929c-.116.364-.455.615-.842.623H8v-1.781zM8 45.6h26v1.8H8v-1.8z"/>
                        <path fill="#018989" fill-rule="nonzero" d="M0 54h42v2.71c0 .712-.578 1.29-1.29 1.29H1.29C.578 58 0 57.422 0 56.71V54z"/>
                    </g>
                    <path d="M0 0H80V80H0z" transform="translate(-538 -5118) translate(538 5118)"/>
                </g>
                <path fill="#F75632" fill-rule="nonzero" d="M68.284 11.716C60.73 4.16 50.684 0 40 0 29.316 0 19.27 4.16 11.716 11.716 4.16 19.27 0 29.316 0 40c0 10.684 4.16 20.73 11.716 28.284C19.27 75.84 29.316 80 40 80c10.684 0 20.73-4.16 28.284-11.716C75.84 60.73 80 50.684 80 40c0-10.684-4.16-20.73-11.716-28.284zM40.13 5.053c8.805 0 16.863 3.262 23.029 8.64L13.694 63.159c-5.379-6.166-8.641-14.224-8.641-23.03 0-19.34 15.735-35.075 35.076-35.075zm-.258 69.894c-8.805 0-16.863-3.262-23.029-8.64l49.464-49.465c5.379 6.166 8.641 14.224 8.641 23.03 0 19.34-15.735 35.075-35.076 35.075z" transform="translate(-538 -5118) translate(538 5118)"/>
            </g>
        </g>
    </g>
</svg>
