<svg xmlns="http://www.w3.org/2000/svg" width="80" height="81" viewBox="0 0 80 81">
    <g fill="none" fill-rule="evenodd">
        <g>
            <g>
                <g>
                    <path fill="#018989" fill-rule="nonzero" d="M16.67 44.094L6 40v9h10.623l1.186-2.338c.498-.983-.011-2.133-1.138-2.568z" transform="translate(-1046 -6726) translate(1046 6726) translate(3 6)"/>
                    <path fill="#00AAAE" fill-rule="nonzero" d="M31.266 44c-.208 0-.415-.091-.56-.27l-3.431-4.2C25.163 36.944 24 33.653 24 30.264v-4.502c0-.42.329-.762.734-.762.406 0 .734.341.734.762v4.502c0 3.029 1.04 5.97 2.927 8.28l3.43 4.202c.263.32.225.801-.085 1.073-.137.122-.306.181-.474.181z" transform="translate(-1046 -6726) translate(1046 6726) translate(3 6)"/>
                    <path fill="#273B7A" fill-rule="nonzero" d="M30.5 54c-.828 0-1.5-.534-1.5-1.194V11.194c0-.66.671-1.194 1.5-1.194s1.5.534 1.5 1.194v41.612c0 .66-.671 1.194-1.5 1.194z" transform="translate(-1046 -6726) translate(1046 6726) translate(3 6)"/>
                    <path fill="#121149" fill-rule="nonzero" d="M5.5 62C4.12 62 3 60.855 3 59.442V25.558C3 24.145 4.12 23 5.5 23S8 24.145 8 25.558v33.884C8 60.855 6.88 62 5.5 62zM66.5 62c-1.38 0-2.5-1.145-2.5-2.558V25.558C64 24.145 65.12 23 66.5 23s2.5 1.145 2.5 2.558v33.884C69 60.855 67.88 62 66.5 62z" transform="translate(-1046 -6726) translate(1046 6726) translate(3 6)"/>
                    <path fill="#121149" fill-rule="nonzero" d="M6 47L67 47 67 55 6 55z" transform="translate(-1046 -6726) translate(1046 6726) translate(3 6)"/>
                    <path fill="#00AAAE" fill-rule="nonzero" d="M8 46v2.957C8 50.085 9.102 51 10.46 51h51.08c1.358 0 2.46-.915 2.46-2.043V46H8z" transform="translate(-1046 -6726) translate(1046 6726) translate(3 6)"/>
                    <path fill="#018989" fill-rule="nonzero" d="M59.58 37H25.42C23.53 37 22 38.717 22 40.836v6.435C22 49.33 23.489 51 25.325 51h34.35C61.512 51 63 49.33 63 47.27v-6.434C63 38.717 61.469 37 59.58 37z" transform="translate(-1046 -6726) translate(1046 6726) translate(3 6)"/>
                    <path fill="#273B7A" fill-rule="nonzero" d="M25.62 20c-.342 0-.62-.335-.62-.75v-2.46c0-.987.665-1.79 1.482-1.79h2.898c.342 0 .62.335.62.75 0 .413-.278.748-.62.748h-2.898c-.134 0-.242.131-.242.292v2.46c0 .415-.277.75-.62.75z" transform="translate(-1046 -6726) translate(1046 6726) translate(3 6)"/>
                    <path fill="#273B7A" fill-rule="nonzero" d="M26.307 18h-3.614c-.383 0-.693.375-.693.838v2.475L24.5 23l2.5-1.687v-2.475c0-.463-.31-.838-.693-.838z" transform="translate(-1046 -6726) translate(1046 6726) translate(3 6)"/>
                    <path fill="#00AAAE" fill-rule="nonzero" d="M22 22v4.171c0 .458.31.829.693.829h3.614c.383 0 .693-.371.693-.829V22h-5z" transform="translate(-1046 -6726) translate(1046 6726) translate(3 6)"/>
                    <path d="M0 0H73V73H0z" transform="translate(-1046 -6726) translate(1046 6726) translate(3 6)"/>
                </g>
                <path fill="#F75632" fill-rule="nonzero" d="M68.284 12.716C60.73 5.16 50.684 1 40 1 29.316 1 19.27 5.16 11.716 12.716 4.16 20.27 0 30.316 0 41c0 10.684 4.16 20.73 11.716 28.284C19.27 76.84 29.316 81 40 81c10.684 0 20.73-4.16 28.284-11.716C75.84 61.73 80 51.684 80 41c0-10.684-4.16-20.73-11.716-28.284zM40.13 6.053c8.805 0 16.863 3.262 23.029 8.64L13.694 64.159c-5.379-6.166-8.641-14.224-8.641-23.03 0-19.34 15.735-35.075 35.076-35.075zm-.258 69.894c-8.805 0-16.863-3.262-23.029-8.64l49.464-49.465c5.379 6.166 8.641 14.224 8.641 23.03 0 19.34-15.735 35.075-35.076 35.075z" transform="translate(-1046 -6726) translate(1046 6726)"/>
            </g>
        </g>
    </g>
</svg>
