<svg xmlns="http://www.w3.org/2000/svg" width="80" height="80" viewBox="0 0 80 80">
    <g fill="none" fill-rule="evenodd">
        <g fill-rule="nonzero">
            <g>
                <g transform="translate(-525 -4731) translate(525 4731) translate(12 9)">
                    <path fill="#F2CBA7" d="M16.029 10.98c3.001.258 5.689-1.962 5.95-5.009.26-3.026-1.982-5.69-5.008-5.95-3.026-.26-5.69 1.982-5.95 5.008-.26 3.026 1.982 5.69 5.008 5.95z"/>
                    <path fill="#273B7A" d="M37.316 44l.986 3.135L37.02 58.58c-.188 1.68.966 3.203 2.578 3.399 1.61.196 3.072-1.006 3.26-2.688L44 49.1l-2.085-2.847-4.6-2.253z"/>
                    <path fill="#273B7A" d="M48.927 39.303c-.316-.403-.727-.726-1.197-.942L36.04 33l.194 1.282c.207 1.362-.144 2.722-.987 3.828-.346.455-.76.842-1.222 1.157 0 2.096-1.545 3.296-3.168 3.296-1.746 0-3.167-1.385-3.167-3.086v-.413c-1.007-.786-1.726-1.94-1.928-3.278l-.418-2.765c-.214.233-.345.539-.345.876v5.58c0 2.696 1.93 4.96 4.513 5.555v15.657c0 .724.602 1.311 1.346 1.311.743 0 1.345-.587 1.345-1.311V45.032c2.322-.534 4.118-2.417 4.455-4.76l7.598 3.478 6.484 8.274c.44.562 1.207 1.809 3.022 1.809.686 0 1.377-.212 1.964-.649 1.405-1.045 1.705-3.024.609-4.426l-7.409-9.455z"/>
                    <circle cx="41.5" cy="7.5" r="5.5" fill="#F2CBA7"/>
                    <path fill="#00AAAE" d="M55.082 29.607l-7.627-2.124-1.957-4.41.825-3.82c.421-1.947-.86-3.856-2.862-4.266l-6.463-1.32c-2.002-.41-3.965.838-4.385 2.783l-.135.623-2.858.027-10.564-3.19c-.397-.189-.836-.312-1.304-.351l-6.535-.547c-1.961-.164-3.728 1.329-3.95 3.322L.7 22.888c-.57.569-.82 1.385-.645 2.179l2.034 9.272c.141.644.546 1.205 1.12 1.554.574.349 1.27.457 1.927.298 1.3-.315 2.106-1.576 1.82-2.849l-1.8-8.027 6.548-6.535-4.042 6.91 1.605 7.253c.502 2.272-.783 4.52-2.932 5.354l1.234 7.644L2.85 58.105c-.577 1.487.195 3.148 1.725 3.709 1.53.561 3.238-.19 3.815-1.678l4.993-12.874c.181-.467.235-.97.155-1.463l-1.732-10.728 1.46.122 4.876 10.491 3.29 14.075c.363 1.55 1.949 2.521 3.544 2.169 1.594-.353 2.592-1.895 2.23-3.446L23.85 44.125c-.044-.188-.107-.372-.189-.547l-4.092-8.806 1.35-15.284 5.6 1.69.005-.002 9.426-4.837-8.242 7.02c-.658.577-.976 1.435-.847 2.288l1.57 10.37c.192 1.269 1.309 2.187 2.594 2.197h.02c1.613 0 2.855-1.392 2.62-2.947l-.469-3.086-.867-5.717 7.476-6.545-4.823 7.117.9 5.934 7.137 1.566.664-3.068c.308.291.689.508 1.111.626l8.832 2.458c1.405.391 2.87-.399 3.271-1.765.402-1.365-.41-2.79-1.815-3.18z"/>
                </g>
                <path fill="#F75632" d="M68.284 11.716C60.73 4.16 50.684 0 40 0 29.316 0 19.27 4.16 11.716 11.716 4.16 19.27 0 29.316 0 40c0 10.684 4.16 20.73 11.716 28.284C19.27 75.84 29.316 80 40 80c10.684 0 20.73-4.16 28.284-11.716C75.84 60.73 80 50.684 80 40c0-10.684-4.16-20.73-11.716-28.284zM40.13 5.053c8.805 0 16.863 3.262 23.029 8.64L13.694 63.159c-5.379-6.166-8.641-14.224-8.641-23.03 0-19.34 15.735-35.075 35.076-35.075zm-.258 69.894c-8.805 0-16.863-3.262-23.029-8.64l49.464-49.465c5.379 6.166 8.641 14.224 8.641 23.03 0 19.34-15.735 35.075-35.076 35.075z" transform="translate(-525 -4731) translate(525 4731)"/>
            </g>
        </g>
    </g>
</svg>
