<svg xmlns="http://www.w3.org/2000/svg" xmlns:xlink="http://www.w3.org/1999/xlink" width="80" height="84" viewBox="0 0 80 84">
    <defs>
        <path id="tz4yx4zm5a" d="M0 3.525L3.553 12.006 11.939 10.757 4.036 0z"/>
    </defs>
    <g fill="none" fill-rule="evenodd">
        <g>
            <g>
                <path fill="#018989" fill-rule="nonzero" d="M49.735 21.738L43.16 30.31l4.209-10.003c.105-.52.523-.82.824-.82.104 0 .196.105.405.196l.614.299.615.299c.536.338.431.832-.092 1.457zM40.82 31.129l1.843-14.399c.196-1.015-.105-1.73-.824-1.73h-2.052c-.72 0-1.02.611-.824 1.73l1.857 14.399z" transform="translate(-95 -6727) translate(94 6727)"/>
                <path fill="#00AAAE" fill-rule="nonzero" d="M43.382 46.738c.614 1.43.823 2.354.823 3.668v13.58c0 .52-.405 1.014-1.02 1.014h-5.333c-.614 0-1.02-.403-1.02-1.015V60.616H8.4v3.37c0 .52-.405 1.014-1.02 1.014H2.02C1.406 65 1 64.597 1 63.985V50.406c0-1.34.196-2.355.824-3.668L8.49 32.859c.719-1.639 2.771-2.953 4.614-2.953h18.877c1.844 0 3.91 1.34 4.733 2.953l6.667 13.879z" transform="translate(-95 -6727) translate(94 6727)"/>
                <path fill="#EAEEF1" fill-rule="nonzero" d="M6.948 46.14h31.179l-4.51-9.587c-.929-1.834-1.74-2.25-3.687-2.25H14.438c-1.437.195-2.156.715-2.862 2.25l-4.628 9.586z" transform="translate(-95 -6727) translate(94 6727)"/>
                <path fill="#018989" fill-rule="nonzero" d="M11.262 53.072c0-1.834-1.542-3.265-3.386-3.265-1.843 0-3.281 1.431-3.281 3.265s1.438 3.37 3.281 3.37c1.844 0 3.386-1.523 3.386-3.37zM40.597 53.072c0-1.834-1.542-3.265-3.386-3.265-1.843 0-3.28 1.431-3.28 3.265s1.437 3.37 3.28 3.37c1.844.012 3.386-1.523 3.386-3.37zM38.558 31.22l-4.21-10.003c-.196-.52-.522-.819-.823-.819h-.3c-.105 0-.105.104-.197.104l-.614.3-.523.402c-.523.3-.405.82.104 1.431l6.563 8.585z" transform="translate(-95 -6727) translate(94 6727)"/>
                <path fill="#273B7A" fill-rule="nonzero" d="M80.704 50.822L77.62 62.359l-.405 1.535c-.105.52-.72.82-1.229.716l-5.124-1.34c-.523-.104-.824-.715-.72-1.223l.406-1.535.523-1.639-25.348-6.737v-1.938c0-.82-.105-1.73-.3-2.55 1.346-.104 2.562-1.014 2.967-2.458.523-1.73-.615-3.564-2.367-4.084-1.124-.196-2.261.104-3.085.819l-2.366-4.904c.105-.104.196-.299.3-.403l10.054-11.641c.928-1.12 2.47-1.73 3.908-1.834.523 0 .929 0 1.347.104l17.962 4.591c1.843.52 3.49 2.354 3.79 4.084l2.864 15.115c.327 1.535.235 2.575-.092 3.785z" transform="translate(-95 -6727) translate(94 6727)"/>
                <path fill="#EAEEF1" fill-rule="nonzero" d="M76.299 45.528L74.35 35.122c-.405-2.029-1.124-2.653-2.967-3.174L57.12 28.06c-.719-.195-1.228-.195-1.738-.195-.824.104-1.543.612-2.367 1.535l-6.98 8.052 30.263 8.077z" transform="translate(-95 -6727) translate(94 6727)"/>
                <path fill="#121149" fill-rule="nonzero" d="M74.351 48.793c-.196-.104-.405-.104-.614-.104h-.615c-1.346.104-2.47 1.014-2.771 2.458-.523 1.73.523 3.564 2.262 4.084 1.738.52 3.581-.61 4.104-2.354.497-1.756-.614-3.59-2.366-4.084z" transform="translate(-95 -6727) translate(94 6727)"/>
                <g transform="translate(-95 -6727) translate(94 6727) translate(42 36)">
                    <mask id="vshb811gsb" fill="#fff">
                        <use xlink:href="#tz4yx4zm5a"/>
                    </mask>
                    <path fill="#121149" fill-rule="nonzero" d="M4.135 5.104C3.94 5 3.73 5 3.521 5h-.614C1.56 5.104.436 6.015.135 7.458c-.523 1.73.523 3.564 2.262 4.085 1.738.52 3.582-.612 4.105-2.355.496-1.756-.615-3.59-2.367-4.084z" mask="url(#vshb811gsb)"/>
                </g>
                <path d="M1 0H81V80H1z" transform="translate(-95 -6727) translate(94 6727)"/>
                <path fill="#F75632" fill-rule="nonzero" d="M68.284 14.716C60.73 7.16 50.684 3 40 3 29.316 3 19.27 7.16 11.716 14.716 4.16 22.27 0 32.316 0 43c0 10.684 4.16 20.73 11.716 28.284C19.27 78.84 29.316 83 40 83c10.684 0 20.73-4.16 28.284-11.716C75.84 63.73 80 53.684 80 43c0-10.684-4.16-20.73-11.716-28.284zM40.13 8.053c8.805 0 16.863 3.262 23.029 8.64L13.694 66.159c-5.379-6.166-8.641-14.224-8.641-23.03 0-19.34 15.735-35.075 35.076-35.075zm-.258 69.894c-8.805 0-16.863-3.262-23.029-8.64l49.464-49.465c5.379 6.166 8.641 14.224 8.641 23.03 0 19.34-15.735 35.075-35.076 35.075z" transform="translate(-95 -6727) translate(94 6727)"/>
            </g>
        </g>
    </g>
</svg>
