<svg id="Layer_1" data-name="Layer 1" xmlns="http://www.w3.org/2000/svg" viewBox="0 0 16 16"><defs><style>.cls-1{fill:#708697;}</style></defs><title>account-off</title><path class="cls-1" d="M7.9,7.71a3.72,3.72,0,0,0,2.72-1.13,3.74,3.74,0,0,0,1.13-2.73,3.72,3.72,0,0,0-1.13-2.72A3.72,3.72,0,0,0,7.9,0,3.74,3.74,0,0,0,5.17,1.13,3.75,3.75,0,0,0,4.05,3.85,3.77,3.77,0,0,0,5.17,6.58,3.74,3.74,0,0,0,7.9,7.71ZM5.84,1.79A2.79,2.79,0,0,1,7.9.94,2.79,2.79,0,0,1,10,1.79a2.78,2.78,0,0,1,.86,2.06A2.79,2.79,0,0,1,10,5.92a2.79,2.79,0,0,1-2.06.85,2.79,2.79,0,0,1-2.06-.85A2.79,2.79,0,0,1,5,3.85,2.78,2.78,0,0,1,5.84,1.79Z"/><path class="cls-1" d="M14.64,12.3a8,8,0,0,0-.13-1,7.1,7.1,0,0,0-.25-1,4.7,4.7,0,0,0-.41-.95,3.56,3.56,0,0,0-.63-.82,2.81,2.81,0,0,0-.91-.57,3.09,3.09,0,0,0-1.15-.21,1.2,1.2,0,0,0-.63.26l-.65.43A4.37,4.37,0,0,1,9,8.79,3.4,3.4,0,0,1,7,8.79a4.37,4.37,0,0,1-.85-.37L5.47,8a1.2,1.2,0,0,0-.63-.26,3.09,3.09,0,0,0-1.15.21,2.81,2.81,0,0,0-.91.57,3.56,3.56,0,0,0-.63.82,4.7,4.7,0,0,0-.41.95,7.1,7.1,0,0,0-.25,1,8,8,0,0,0-.13,1c0,.31,0,.63,0,.95a2.67,2.67,0,0,0,.78,2,2.87,2.87,0,0,0,2,.74h7.7a2.87,2.87,0,0,0,2-.74,2.67,2.67,0,0,0,.78-2C14.67,12.93,14.66,12.61,14.64,12.3Zm-1.4,2.28a1.94,1.94,0,0,1-1.39.48H4.15a1.94,1.94,0,0,1-1.39-.48,1.76,1.76,0,0,1-.5-1.33c0-.3,0-.6,0-.88a8.15,8.15,0,0,1,.12-.91,7,7,0,0,1,.22-.9A4,4,0,0,1,3,9.79a2.64,2.64,0,0,1,.46-.61A1.9,1.9,0,0,1,4,8.81a2,2,0,0,1,.74-.14A1.14,1.14,0,0,1,5,8.78l.66.43a5.06,5.06,0,0,0,1.06.47,4.25,4.25,0,0,0,2.64,0,5.06,5.06,0,0,0,1.06-.47L11,8.78a1.14,1.14,0,0,1,.19-.11,2,2,0,0,1,.74.14,1.9,1.9,0,0,1,.6.37,2.64,2.64,0,0,1,.46.61,4,4,0,0,1,.34.77,7.41,7.41,0,0,1,.22.9,8.15,8.15,0,0,1,.12.91h0c0,.28,0,.58,0,.88A1.76,1.76,0,0,1,13.24,14.58Z"/></svg>