<svg xmlns="http://www.w3.org/2000/svg" width="16" height="16" viewBox="0 0 16 16">
    <g fill="#708697">
        <path d="M5.155 10.825h8.501c.21 0 .393-.146.451-.357l1.875-6.877c.04-.148.012-.308-.076-.43-.09-.124-.228-.196-.375-.196H4.074l-.335-1.58C3.69 1.16 3.5 1 3.28 1H.47C.209 1 0 1.22 0 1.491c0 .272.21.491.469.491h2.436l1.693 7.982c-.499.227-.848.747-.848 1.352 0 .812.63 1.473 1.406 1.473h8.5c.26 0 .469-.22.469-.49 0-.272-.21-.492-.469-.492h-8.5c-.258 0-.468-.22-.468-.491 0-.27.21-.49.467-.491zm9.755-6.878l-1.607 5.895h-7.77l-1.25-5.895H14.91zM5.053 14.053c0 .696.566 1.263 1.263 1.263.696 0 1.263-.567 1.263-1.263 0-.697-.567-1.264-1.263-1.264-.697 0-1.263.567-1.263 1.264zm1.263-.421c.232 0 .42.189.42.42 0 .233-.188.422-.42.422-.232 0-.421-.19-.421-.421 0-.232.189-.421.42-.421zM11.79 14.053c0 .696.566 1.263 1.263 1.263.696 0 1.263-.567 1.263-1.263 0-.697-.567-1.264-1.263-1.264-.697 0-1.264.567-1.264 1.264zm1.263-.421c.232 0 .42.189.42.42 0 .233-.188.422-.42.422-.232 0-.421-.19-.421-.421 0-.232.189-.421.42-.421z"/>
    </g>
</svg>
