<svg viewBox="0 0 16 16" xmlns="http://www.w3.org/2000/svg"><path d="m13.87.14a.45.45 0 0 0 -.66 0l-3.61 3.61h-8.19a1.41 1.41 0 0 0 -1.41 1.41v6.56a1.41 1.41 0 0 0 1.41 1.4h.5v2.41a.46.46 0 0 0 .8.33l2.67-2.74h5.46a1.41 1.41 0 0 0 1.41-1.4v-5.32l3.61-3.61a.45.45 0 0 0 0-.66zm-4.31 7.62-1.32-1.33 4-4 1.32 1.32zm-1.82-.5 1 1-1.74.74zm3.57 4.46a.47.47 0 0 1 -.47.47h-5.65a.48.48 0 0 0 -.34.14l-2 2.05v-1.72a.47.47 0 0 0 -.46-.47h-1a.47.47 0 0 1 -.47-.47v-6.56a.47.47 0 0 1 .47-.47h7.27l-1.42 1.41a1.12 1.12 0 0 0 -.1.16l-1.3 3.12h-2.53a.46.46 0 0 0 -.47.46.47.47 0 0 0 .47.47h2.85a.39.39 0 0 0 .18 0l3.4-1.41a.54.54 0 0 0 .16-.1l1.41-1.42zm2.9-8.6-1.33-1.33.66-.66 1.33 1.33z" fill="#708697"/></svg>