<svg xmlns="http://www.w3.org/2000/svg" width="17" height="16" viewBox="0 0 17 16">
    <defs>
        <filter id="u4d4sfg8ra" width="104.3%" height="122.2%" x="-2.1%" y="-11.1%" filterUnits="objectBoundingBox">
            <feOffset in="SourceAlpha" result="shadowOffsetOuter1"/>
            <feGaussianBlur in="shadowOffsetOuter1" result="shadowBlurOuter1" stdDeviation="2"/>
            <feColorMatrix in="shadowBlurOuter1" result="shadowMatrixOuter1" values="0 0 0 0 0 0 0 0 0 0 0 0 0 0 0 0 0 0 0.131064248 0"/>
            <feMerge>
                <feMergeNode in="shadowMatrixOuter1"/>
                <feMergeNode in="SourceGraphic"/>
            </feMerge>
        </filter>
    </defs>
    <g fill="none" stroke="#708697" stroke-width=".8" filter="url(#u4d4sfg8ra)" transform="translate(-29 -12)">
        <g>
            <path d="M15.731 6.664L8.553.212c-.315-.283-.79-.283-1.106 0L.27 6.664c-.253.227-.336.577-.213.89.124.315.424.518.765.518h1.147v6.464c0 .256.21.464.47.464h3.935c.26 0 .47-.208.47-.464V10.61h2.313v3.925c0 .256.211.464.47.464h3.935c.26 0 .471-.208.471-.464V8.072h1.147c.341 0 .642-.203.765-.517s.04-.664-.213-.89zM14.482 1H11l4 3V1.428C15 1.19 14.768 1 14.482 1z" transform="translate(29.5 12)"/>
        </g>
    </g>
</svg>
