<svg id="Layer_1" data-name="Layer 1" xmlns="http://www.w3.org/2000/svg" viewBox="0 0 16 16"><defs><style>.cls-1,.cls-2{fill:none;stroke:#708697;}.cls-2{stroke-width:0.5px;}</style></defs><g id="Homepage-Mobile"><g id="_1_Homepage-v1-mobile" data-name="1_Homepage-v1-mobile"><g id="Group-43"><g id="Group-42"><g id="Group-41"><g id="Group-36"><g id="Group-37"><circle class="cls-1" cx="8" cy="8" r="7.43"/><g id="Group-35"><path class="cls-2" d="M4.65,10.86h0a.54.54,0,0,1-.53-.55V6.4a.55.55,0,0,1,.53-.56h0a.55.55,0,0,1,.53.56v3.89A.54.54,0,0,1,4.65,10.86Z"/><path class="cls-2" d="M6.8,13.18h0a.54.54,0,0,1-.53-.55V7.91a.54.54,0,0,1,.53-.55h0a.54.54,0,0,1,.52.55v4.73A.51.51,0,0,1,6.8,13.18Z"/><path class="cls-2" d="M8.93,10.63h0a.54.54,0,0,1-.53-.55V4a.54.54,0,0,1,.53-.55h0A.54.54,0,0,1,9.46,4v6.13A.53.53,0,0,1,8.93,10.63Z"/><path class="cls-2" d="M2.51,8.08h0A.55.55,0,0,1,2,7.52H2A.54.54,0,0,1,2.51,7h0A.54.54,0,0,1,3,7.52H3A.54.54,0,0,1,2.51,8.08Z"/><path class="cls-2" d="M11.08,9.66h0a.54.54,0,0,1-.53-.55h0a.55.55,0,0,1,.53-.56h0a.55.55,0,0,1,.53.56h0A.54.54,0,0,1,11.08,9.66Z"/><path class="cls-2" d="M13.22,8.08h0a.55.55,0,0,1-.53-.56h0A.54.54,0,0,1,13.22,7h0a.54.54,0,0,1,.53.55h0A.55.55,0,0,1,13.22,8.08Z"/></g><path class="cls-2" d="M11.15,8.06h0a.55.55,0,0,1-.57-.5V5.07a.55.55,0,0,1,.57-.51h0a.56.56,0,0,1,.58.51V7.56A.56.56,0,0,1,11.15,8.06Z"/></g></g></g></g></g></g></g></svg>