<svg xmlns="http://www.w3.org/2000/svg" width="14" height="14" viewBox="0 0 14 14">
    <g fill="none" fill-rule="evenodd">
        <g fill="#FFF">
            <g>
                <g>
                    <g>
                        <g>
                            <g>
                                <path d="M11.423.667h-8.18C1.823.667.667 1.822.667 3.243v8.18C.667 12.844 1.823 14 3.243 14h8.18C12.843 14 14 12.844 14 11.423v-8.18c0-1.42-1.156-2.576-2.577-2.576zm.74 1.537l.294-.002v2.26l-2.253.008-.008-2.26 1.966-.006zM5.43 5.964c.426-.59 1.12-.978 1.902-.978.783 0 1.477.387 1.903.979.278.385.444.857.444 1.368 0 1.294-1.052 2.347-2.347 2.347-1.293 0-2.346-1.053-2.346-2.347 0-.51.166-.983.444-1.368zm7.27 5.46c0 .704-.573 1.277-1.278 1.277h-8.18c-.704 0-1.277-.573-1.277-1.278V5.965h1.99c-.172.423-.268.885-.268 1.368 0 2.01 1.635 3.646 3.645 3.646 2.011 0 3.646-1.636 3.646-3.646 0-.483-.098-.945-.268-1.368h1.99v5.458z" transform="translate(-1150 -5843) translate(-1 5582) translate(1058 252) translate(83) translate(9.533 8.8)"/>
                            </g>
                        </g>
                    </g>
                </g>
            </g>
        </g>
    </g>
</svg>
