<svg xmlns="http://www.w3.org/2000/svg" width="15" height="13" viewBox="0 0 15 13">
    <g fill="none" fill-rule="evenodd">
        <g fill="#FFF">
            <g>
                <g>
                    <g>
                        <g>
                            <path d="M12.35 1.897c.594-.374 1.05-.968 1.263-1.675-.556.347-1.17.599-1.824.735C11.266.367 10.519 0 9.692 0c-1.586 0-2.87 1.356-2.87 3.029 0 .238.023.469.072.69C4.508 3.592 2.392 2.388.974.554c-.247.449-.388.969-.388 1.523 0 1.05.507 1.978 1.278 2.522-.471-.015-.914-.153-1.302-.378v.037c0 1.468.99 2.693 2.305 2.97-.242.071-.495.107-.758.107-.184 0-.365-.019-.54-.054.365 1.203 1.426 2.08 2.684 2.103-.984.813-2.222 1.297-3.568 1.297-.231 0-.46-.013-.685-.042C1.271 11.5 2.78 12 4.403 12c5.284 0 8.171-4.616 8.171-8.62 0-.13-.001-.262-.007-.39.561-.428 1.05-.962 1.433-1.57-.515.241-1.07.404-1.65.477z" transform="translate(-745 -3800) translate(668 3757) translate(0 33) translate(68) translate(9.533 10.267)"/>
                        </g>
                    </g>
                </g>
            </g>
        </g>
    </g>
</svg>
