<svg xmlns="http://www.w3.org/2000/svg" width="80" height="80" viewBox="0 0 80 80">
    <g fill="none" fill-rule="evenodd">
        <g>
            <g>
                <g>
                    <path fill="#121149" fill-rule="nonzero" d="M12.463 21.366h48.074c.983 0 1.78.797 1.78 1.78v34.72c0 .983-.797 1.78-1.78 1.78H12.463c-.983 0-1.78-.797-1.78-1.78v-34.72c0-.983.797-1.78 1.78-1.78z" transform="translate(-1050 -4465) translate(1050 4465) translate(3 7)"/>
                    <path fill="#018989" fill-rule="nonzero" d="M16.915 25.817h39.17c.984 0 1.78.797 1.78 1.78v19.586c0 .983-.796 1.78-1.78 1.78h-39.17c-.984 0-1.78-.797-1.78-1.78V27.598c0-.984.796-1.78 1.78-1.78z" transform="translate(-1050 -4465) translate(1050 4465) translate(3 7)"/>
                    <path fill="#00AAAE" fill-rule="nonzero" stroke="#00AAAE" d="M34.676 41.841c-.58.002-1.125-.268-1.457-.721l-4.779-6.49-2.55 3.033c-.338.402-.85.635-1.39.634h-3.134v-1.692h3.133l2.55-3.031c.351-.416.888-.651 1.448-.634.56.017 1.08.284 1.402.72l4.779 6.49 3.007-4.575c.32-.488.878-.787 1.483-.795.607-.014 1.177.271 1.508.754l.752 1.07h10.206v1.693H41.428c-.596.001-1.152-.282-1.482-.753l-.75-1.071-3.009 4.573c-.316.482-.866.781-1.464.795h-.047z" transform="translate(-1050 -4465) translate(1050 4465) translate(3 7)"/>
                    <path fill="#00AAAE" fill-rule="nonzero" d="M55.195 54.305c0 1.475-1.196 2.67-2.67 2.67-1.476 0-2.671-1.195-2.671-2.67 0-1.475 1.195-2.67 2.67-2.67 1.475 0 2.671 1.195 2.671 2.67z" transform="translate(-1050 -4465) translate(1050 4465) translate(3 7)"/>
                    <path fill="#273B7A" fill-rule="nonzero" d="M31.159 53.415h1.78c.492 0 .89.398.89.89v1.78c0 .492-.398.89-.89.89h-1.78c-.492 0-.89-.398-.89-.89v-1.78c0-.492.398-.89.89-.89zM37.39 53.415h1.78c.492 0 .891.398.891.89v1.78c0 .492-.399.89-.89.89h-1.78c-.492 0-.891-.398-.891-.89v-1.78c0-.492.399-.89.89-.89zM44.512 53.415h1.78c.492 0 .89.398.89.89v1.78c0 .492-.398.89-.89.89h-1.78c-.491 0-.89-.398-.89-.89v-1.78c0-.492.399-.89.89-.89z" transform="translate(-1050 -4465) translate(1050 4465) translate(3 7)"/>
                    <path fill="#121149" fill-rule="nonzero" d="M45.043 13.951c-.337-.38-.822-.597-1.33-.597H29.287c-.508 0-.993.217-1.33.597l-6.591 7.415h6.232l3.184-3.812c.338-.406.839-.64 1.366-.64h8.704c.527 0 1.028.234 1.366.64l3.184 3.812h6.232l-6.59-7.415z" transform="translate(-1050 -4465) translate(1050 4465) translate(3 7)"/>
                    <path d="M0.89 0.89H72.11V72.11H0.89z" transform="translate(-1050 -4465) translate(1050 4465) translate(3 7)"/>
                </g>
                <path fill="#F75632" fill-rule="nonzero" d="M68.284 11.716C60.73 4.16 50.684 0 40 0 29.316 0 19.27 4.16 11.716 11.716 4.16 19.27 0 29.316 0 40c0 10.684 4.16 20.73 11.716 28.284C19.27 75.84 29.316 80 40 80c10.684 0 20.73-4.16 28.284-11.716C75.84 60.73 80 50.684 80 40c0-10.684-4.16-20.73-11.716-28.284zM40.13 5.053c8.805 0 16.863 3.262 23.029 8.64L13.694 63.159c-5.379-6.166-8.641-14.224-8.641-23.03 0-19.34 15.735-35.075 35.076-35.075zm-.258 69.894c-8.805 0-16.863-3.262-23.029-8.64l49.464-49.465c5.379 6.166 8.641 14.224 8.641 23.03 0 19.34-15.735 35.075-35.076 35.075z" transform="translate(-1050 -4465) translate(1050 4465)"/>
            </g>
        </g>
    </g>
</svg>
