<svg xmlns="http://www.w3.org/2000/svg" width="50" height="51" viewBox="0 0 50 51">
    <defs>
        <linearGradient id="5rmgmq9chb" x1="44.634%" x2="60.873%" y1="107.099%" y2="18.916%">
            <stop offset="0%" stop-color="#BCBCBC"/>
            <stop offset="100%" stop-color="#505050"/>
        </linearGradient>
        <linearGradient id="3jup6hi2zc" x1="50%" x2="21.818%" y1="36.374%" y2="52.543%">
            <stop offset="0%" stop-color="#E69600"/>
            <stop offset="100%" stop-color="#C95D00"/>
        </linearGradient>
        <linearGradient id="t1g35pb2fd" x1="66.782%" x2="29.406%" y1="33.65%" y2="53.406%">
            <stop offset="0%" stop-color="#EBA400"/>
            <stop offset="100%" stop-color="#D36B00"/>
        </linearGradient>
        <linearGradient id="wsu2b4j9ee" x1="62.689%" x2="43.513%" y1="0%" y2="60.252%">
            <stop offset="0%" stop-color="#F6BE00"/>
            <stop offset="100%" stop-color="#EA8A00"/>
        </linearGradient>
        <filter id="a8g94qwjha" width="109.2%" height="113.7%" x="-4.6%" y="-6.4%" filterUnits="objectBoundingBox">
            <feOffset dy="2" in="SourceAlpha" result="shadowOffsetOuter1"/>
            <feGaussianBlur in="shadowOffsetOuter1" result="shadowBlurOuter1" stdDeviation="2"/>
            <feColorMatrix in="shadowBlurOuter1" result="shadowMatrixOuter1" values="0 0 0 0 0 0 0 0 0 0 0 0 0 0 0 0 0 0 0.207987325 0"/>
            <feMerge>
                <feMergeNode in="shadowMatrixOuter1"/>
                <feMergeNode in="SourceGraphic"/>
            </feMerge>
        </filter>
    </defs>
    <g fill="none" fill-rule="evenodd">
        <g fill-rule="nonzero">
            <g filter="url(#a8g94qwjha)" transform="translate(-461 -237) translate(431 57)">
                <g>
                    <g>
                        <g>
                            <g>
                                <path fill="url(#5rmgmq9chb)" d="M22.169 4.634v23.293c0 .926-.334 1.779-.927 2.428-.667.778-1.668 1.279-2.78 1.279-2.04 0-3.708-1.669-3.708-3.707 0-.52.408-.927.927-.927.519 0 .927.408.927.927 0 1.019.834 1.853 1.853 1.853 1.02 0 1.854-.834 1.854-1.853V4.634c0-.52.408-.927.927-.927.52 0 .927.408.927.927z" transform="translate(0 163.405) translate(30 17) translate(7.286 11) matrix(-1 0 0 1 32 0) matrix(-1 0 0 1 36.923 0)"/>
                                <path fill="url(#3jup6hi2zc)" d="M31.637 15.588c0 .5-.39.927-.908.927-.556.018-.927-.37-.946-.871-.074-1.502-1.279-2.67-2.78-2.67-1.539 0-2.78 1.243-2.78 2.781L15.818 5.06l-.204-.26-8.2 10.955c0-1.538-1.242-2.78-2.78-2.78-1.391 0-2.577 1.038-2.763 2.428 0 .074-.018.148-.018.222-.019.52-.427.853-.946.89-.5-.019-.908-.426-.908-.927C.093 6.988 7.217 0 15.819 0c8.6 0 15.725 6.988 15.818 15.588z" transform="translate(0 163.405) translate(30 17) translate(7.286 11) matrix(-1 0 0 1 32 0)"/>
                                <path fill="#F9B300" d="M31.637 15.588c0 .5-.39.927-.908.927-.556.018-.927-.37-.946-.871-.074-1.502-1.279-2.67-2.78-2.67-1.539 0-2.78 1.243-2.78 2.781L15.818 5.06V0c8.6 0 15.725 6.988 15.818 15.588z" transform="translate(0 163.405) translate(30 17) translate(7.286 11) matrix(-1 0 0 1 32 0)"/>
                                <path fill="url(#t1g35pb2fd)" d="M24.222 15.755c0 .519-.408.927-.927.927-.519 0-.927-.408-.927-.927v-.24-.02l-.018-.018c-.13-1.409-1.353-2.502-2.762-2.502-1.539 0-2.843 1.242-2.843 2.78 0 .519-.407.927-.926.927-.52 0-.927-.408-.927-.927 0-1.538-1.304-2.78-2.843-2.78-1.409 0-2.632 1.093-2.762 2.502l-.018.018v.26c0 .519-.408.927-.927.927-.52 0-.927-.408-.927-.927 0-.13.018-.241.018-.37v-.02C7.508 7.063 10.943.464 15.337.02 15.485 0 15.633 0 15.819 0c.166 0 .333 0 .519.019 4.356.444 7.792 7.043 7.866 15.347v.018c0 .13.018.241.018.371z" transform="translate(0 163.405) translate(30 17) translate(7.286 11) matrix(-1 0 0 1 32 0)"/>
                                <path fill="url(#wsu2b4j9ee)" d="M24.222 15.755c0 .519-.408.927-.927.927-.519 0-.927-.408-.927-.927v-.24-.02l-.018-.018c-.13-1.409-1.353-2.502-2.762-2.502-1.539 0-2.843 1.242-2.843 2.78 0 .519-.407.927-.926.927V0c.166 0 .333 0 .519.019 4.356.444 7.792 7.043 7.866 15.347v.018c0 .13.018.241.018.371z" transform="translate(0 163.405) translate(30 17) translate(7.286 11) matrix(-1 0 0 1 32 0)"/>
                            </g>
                        </g>
                    </g>
                </g>
            </g>
        </g>
    </g>
</svg>
