<svg xmlns="http://www.w3.org/2000/svg" width="50" height="51" viewBox="0 0 50 51">
    <defs>
        <linearGradient id="24nsjkmu1b" x1="0%" x2="100%" y1="50%" y2="50%">
            <stop offset="0%" stop-color="#D0D2D3"/>
            <stop offset="4%" stop-color="#D8DADB"/>
            <stop offset="19%" stop-color="#EEEEEF"/>
            <stop offset="33%" stop-color="#FBFBFB"/>
            <stop offset="45%" stop-color="#FFF"/>
            <stop offset="62%" stop-color="#FBFBFC"/>
            <stop offset="77%" stop-color="#F0F1F1"/>
            <stop offset="92%" stop-color="#DDDFE0"/>
            <stop offset="100%" stop-color="#D0D2D3"/>
        </linearGradient>
        <linearGradient id="7ftasu3byc" x1="50.285%" x2="49.699%" y1="48.447%" y2="51.704%">
            <stop offset="0%" stop-color="#57A0AA"/>
            <stop offset="11%" stop-color="#4E9BA5"/>
            <stop offset="98%" stop-color="#087684"/>
        </linearGradient>
        <linearGradient id="nhznqb9z0d" x1="0%" x2="99.943%" y1="50%" y2="50%">
            <stop offset="6%" stop-color="#E74546"/>
            <stop offset="100%" stop-color="#933E1F"/>
        </linearGradient>
        <linearGradient id="rcq5v79mze" x1="50.238%" x2="49.731%" y1="48.403%" y2="51.753%">
            <stop offset="0%" stop-color="#57A0AA"/>
            <stop offset="11%" stop-color="#4E9BA5"/>
            <stop offset="98%" stop-color="#087684"/>
        </linearGradient>
        <filter id="m7hujg1bca" width="109.2%" height="113.7%" x="-4.6%" y="-6.4%" filterUnits="objectBoundingBox">
            <feOffset dy="2" in="SourceAlpha" result="shadowOffsetOuter1"/>
            <feGaussianBlur in="shadowOffsetOuter1" result="shadowBlurOuter1" stdDeviation="2"/>
            <feColorMatrix in="shadowBlurOuter1" result="shadowMatrixOuter1" values="0 0 0 0 0 0 0 0 0 0 0 0 0 0 0 0 0 0 0.207987325 0"/>
            <feMerge>
                <feMergeNode in="shadowMatrixOuter1"/>
                <feMergeNode in="SourceGraphic"/>
            </feMerge>
        </filter>
    </defs>
    <g fill="none" fill-rule="evenodd">
        <g fill-rule="nonzero">
            <g filter="url(#m7hujg1bca)" transform="translate(-794 -139) translate(431 57)">
                <g>
                    <g>
                        <g transform="translate(341 68.405) translate(22 14) translate(13 10)">
                            <g>
                                <path fill="#7DC3D0" d="M1.64 2.457h21.31v26.207H1.684c-.022 0-.04-.019-.04-.042V2.457h-.004z"/>
                                <rect width="4.098" height="4.095" x="3.279" y="8.19" fill="url(#24nsjkmu1b)" rx="2.047"/>
                                <rect width="4.098" height="4.095" x="9.016" y="8.19" fill="url(#24nsjkmu1b)" rx="2.047"/>
                                <rect width="4.098" height="4.095" x="16.393" y="8.19" fill="url(#24nsjkmu1b)" rx="2.047"/>
                                <rect width="4.098" height="4.095" x="3.279" y="14.741" fill="url(#24nsjkmu1b)" rx="2.047"/>
                                <rect width="4.098" height="4.095" x="9.016" y="14.741" fill="url(#24nsjkmu1b)" rx="2.047"/>
                                <rect width="4.098" height="4.095" x="16.393" y="14.741" fill="url(#24nsjkmu1b)" rx="2.047"/>
                                <path fill="#314153" d="M9.956 20.474h3.855c.468 0 .916.174 1.246.484.331.31.517.73.517 1.169v5.718H8.197v-5.722c.002-.91.788-1.647 1.759-1.649z"/>
                                <rect width="23.77" height="2.457" y="1.638" fill="url(#7ftasu3byc)" rx="1.228"/>
                                <ellipse cx="11.475" cy="3.276" fill="url(#nhznqb9z0d)" rx="3.279" ry="3.276"/>
                                <path fill="#FFF" d="M12.491 3.08L12.491 1.638 11.283 1.638 11.283 3.08 9.836 3.08 9.836 4.287 11.283 4.287 11.283 5.733 12.491 5.733 12.491 4.287 13.934 4.287 13.934 3.08z"/>
                            </g>
                            <rect width="23.77" height="2.457" y="27.026" fill="url(#rcq5v79mze)" rx="1.228"/>
                        </g>
                    </g>
                </g>
            </g>
        </g>
    </g>
</svg>
