<svg xmlns="http://www.w3.org/2000/svg" width="80" height="80" viewBox="0 0 80 80">
    <g fill="none" fill-rule="evenodd">
        <g>
            <g>
                <g>
                    <path fill="#00AAAE" fill-rule="nonzero" d="M71 22.26v36.48c0 2.356-1.88 4.26-4.207 4.26H14.207C11.88 63 10 61.096 10 58.74V22.26c0-2.356 1.88-4.26 4.207-4.26h52.586C69.12 18 71 19.904 71 22.26z" transform="translate(-1155 -1839) translate(1155 1839)"/>
                    <path fill="#00AAAE" fill-rule="nonzero" d="M71 22.26v3.3c0 1.251-1.052 2.13-1.998 2.13-22.086 1.104-39.335 14.494-46.552 33.926-.303.825-1.091 1.384-1.972 1.384h-6.271C11.88 63 10 61.097 10 58.74V22.26c0-2.357 1.88-4.26 4.207-4.26h52.586C69.12 18 71 19.903 71 22.26z" transform="translate(-1155 -1839) translate(1155 1839)"/>
                    <path fill="#273B7A" fill-rule="nonzero" d="M10 28L71 28 71 37 10 37z" transform="translate(-1155 -1839) translate(1155 1839)"/>
                    <path fill="#273B7A" fill-rule="nonzero" d="M69 28c-1.29.423-14.144-.225-27.52 8.971-.052.04 1.42.027-31.48.027V28h59z" transform="translate(-1155 -1839) translate(1155 1839)"/>
                    <g fill="#FFF" fill-rule="nonzero">
                        <path d="M9.94 2.182H1.06C.477 2.182 0 1.69 0 1.09S.477 0 1.06 0h8.88C10.523 0 11 .49 11 1.09c0 .6-.477 1.092-1.06 1.092zM9.94 9H1.06C.477 9 0 8.51 0 7.91c0-.6.477-1.092 1.06-1.092h8.88c.583 0 1.06.491 1.06 1.091S10.523 9 9.94 9z" transform="translate(-1155 -1839) translate(1155 1839) translate(18 45)"/>
                    </g>
                    <path d="M0 0H80V80H0z" transform="translate(-1155 -1839) translate(1155 1839)"/>
                </g>
            </g>
        </g>
    </g>
</svg>
