<svg xmlns="http://www.w3.org/2000/svg" width="80" height="80" viewBox="0 0 80 80">
    <g fill="none" fill-rule="evenodd">
        <g>
            <g>
                <g fill-rule="nonzero">
                    <g>
                        <g fill="#273B7A">
                            <path d="M13.098 6.246c-.311 0-.617-.14-.816-.408-.919-1.237-2.555-2.656-5.13-2.383-3.03.32-5.28-.636-6.635-1.493C.047 1.664-.091 1.045.21.579c.3-.466.926-.602 1.396-.304C2.688.96 4.49 1.722 6.939 1.464c3.714-.39 5.962 1.83 6.972 3.188.33.445.235 1.072-.215 1.4-.18.13-.39.194-.598.194z" transform="translate(-189 -2080) translate(189 2080) translate(7 6) translate(13.478) translate(2.617 5.96)"/>
                            <path d="M2.513 11.562c-.18 0-.363-.047-.528-.148-.476-.29-.624-.905-.332-1.377 1.295-2.09 3.67-3.527 6.867-4.155 2.331-.457 4.287-.332 4.369-.326.557.038.978.516.94 1.067-.039.551-.522.965-1.077.93-.07-.004-6.935-.407-9.376 3.532-.191.308-.523.477-.863.477z" transform="translate(-189 -2080) translate(189 2080) translate(7 6) translate(13.478) translate(2.617 5.96)"/>
                        </g>
                        <path fill="#00AAAE" d="M20.369 55.882c16.602 0 25.783-24.115-.435-42.74-.653-.464-1.04-1.21-1.031-2.004.007-.657.217-1.295.598-1.833C20.728 7.57 22.495 4.6 23.554 2.21c.254-.573-.11-1.189-.788-1.189-1.575 0-1.575-1.02-3.15-1.02-1.574 0-1.574 1.02-3.15 1.02-1.341 0-1.892-1.143-2.544-.311-1.903 2.425 4.614 10.953 4.614 10.953-28.784 18.738-19.503 44.22-2.508 44.22h4.34z" transform="translate(-189 -2080) translate(189 2080) translate(7 6) translate(13.478)"/>
                        <path fill="#018989" d="M26.895 11.662s6.615-8.5 4.713-10.94c-.649-.83-1.201.299-2.542.299C27.491 1.02 27.491 0 25.916 0s-1.575 1.02-3.15 1.02c-.077 0-.148-.004-.219-.009-.632 2.686-3.484 6.87-5.116 9.112.643.933 1.105 1.539 1.105 1.539-.383.25-.76.501-1.13.753 27.502 18.718 18.3 43.467 1.48 43.467h10.62c17.046 0 26.27-25.42-2.61-44.22z" transform="translate(-189 -2080) translate(189 2080) translate(7 6) translate(13.478)"/>
                        <path fill="#273B7A" d="M28.125 14.685c-3.843.961-7.64.961-11.484 0-1.338-.334-2.096-1.824-1.615-3.178l.016-.046c.404-1.135 1.549-1.772 2.671-1.493 3.147.782 6.192.783 9.34 0 1.122-.279 2.267.358 2.67 1.493l.017.046c.482 1.354-.277 2.844-1.615 3.178z" transform="translate(-189 -2080) translate(189 2080) translate(7 6) translate(13.478)"/>
                    </g>
                    <g>
                        <g>
                            <path fill="#FFDDCE" d="M.102 18.92l14.636 5.395c1.243.458 2.56.693 3.886.693h15.084c2.11 0 4.178-.594 5.961-1.713l18.887-11.851c1.246-1.096 1.477-2.937.54-4.301-1.026-1.493-2.723-1.752-4.59-.878l-18.388 8.017.022-2.954c-.244-2.425-2.13-4.37-4.566-4.712L20.376 5.339c-2.583-.362-3.874-1.219-6.126-2.523C11.176 1.035 7.678.096 4.117.096H.102V18.92z" transform="translate(-189 -2080) translate(189 2080) translate(7 6) translate(0 37.835) translate(5.365 3.498)"/>
                            <path fill="#F2CBA7" d="M13.85 21.44c1.306.482 2.69.729 4.084.729H33.79c1.689 0 3.35-.363 4.874-1.053l11.088-6.958c1.03-.646 1.684-1.772 1.65-2.979-.017-.64-.215-1.28-.602-1.844 0 0-.337-.573-.684-1.156l-14 6.103.023-2.954c-.244-2.425-2.13-4.37-4.566-4.712L20.376 5.339c-2.583-.362-3.874-1.219-6.126-2.523C11.176 1.035 7.678.096 4.117.096H.102v16.277l13.747 5.067z" transform="translate(-189 -2080) translate(189 2080) translate(7 6) translate(0 37.835) translate(5.365 3.498)"/>
                            <path fill="#E1B494" d="M59.096 7.143c-1.026-1.493-2.723-1.752-4.59-.878L49.448 8.47l.44.69c.937 1.365.706 3.206-.54 4.302l-11.005 6.905c-1.45.657-3.03 1.002-4.636 1.002H18.624c-1.327 0-2.643-.235-3.886-.693L.102 15.28v3.639l14.636 5.395c1.243.458 2.56.693 3.886.693h15.084c2.11 0 4.178-.594 5.961-1.713l18.887-11.851c1.246-1.096 1.477-2.937.54-4.301z" transform="translate(-189 -2080) translate(189 2080) translate(7 6) translate(0 37.835) translate(5.365 3.498)"/>
                            <path fill="#F5DBCC" d="M34.767 8.285v.07l.047-.02-.047-.05z" transform="translate(-189 -2080) translate(189 2080) translate(7 6) translate(0 37.835) translate(5.365 3.498)"/>
                            <path fill="#FFCBBE" d="M36.118 14.28H24.684c-.558 0-1.01-.448-1.01-1 0-.554.452-1.002 1.01-1.002h11.449l-.015 2.002z" transform="translate(-189 -2080) translate(189 2080) translate(7 6) translate(0 37.835) translate(5.365 3.498)"/>
                        </g>
                        <path fill="#121149" d="M8.616 25.306c0 1.051-.86 1.904-1.923 1.904h-4.64C.99 27.21.13 26.357.13 25.306V1.99C.13.939.99.087 2.052.087h4.641c1.062 0 1.923.852 1.923 1.904v23.315z" transform="translate(-189 -2080) translate(189 2080) translate(7 6) translate(0 37.835)"/>
                    </g>
                </g>
                <path d="M0 0H80V80H0z" transform="translate(-189 -2080) translate(189 2080)"/>
                <text fill="#FFF" font-family="OpenSans-Semibold, Open Sans" font-size="14" font-weight="500" transform="translate(-189 -2080) translate(189 2080)">
                    <tspan x="32.719" y="45">RP</tspan>
                </text>
            </g>
        </g>
    </g>
</svg>
