<svg xmlns="http://www.w3.org/2000/svg" width="80" height="80" viewBox="0 0 80 80">
    <g fill="none" fill-rule="evenodd">
        <g>
            <g>
                <path fill="#121149" d="M40 26.584L26.743 37 23 33.761c.052-5.74 1.3-9.337 3.743-10.791 3.666-2.182 11.39 0 11.39 0L40 26.584z" transform="translate(-1050 -3801) translate(1046 3801)"/>
                <path fill="#00AAAE" fill-rule="nonzero" d="M60.073 21.485c-4.239-3.891-9.038-3.886-12.625-3.013-3.573.87-7.323.87-10.896 0-3.587-.873-8.386-.878-12.625 3.013-8.033 7.371-1.57 20.54.376 22.808 1.946 2.268 2.008 5.292 3.389 11.467 1.38 6.174 3.138 12.034 6.652 11.152 3.514-.882 4.456-5.167 5.334-10.9.06-.395.124-.765.189-1.112.446-2.384 3.82-2.384 4.266 0 .065.347.128.717.189 1.112.878 5.733 1.82 10.018 5.334 10.9 3.514.882 5.271-4.978 6.652-11.152 1.38-6.175 1.443-9.2 3.389-11.467 1.945-2.269 8.41-15.437.376-22.808zm-24.085 3.023c-.1.7-.78 1.193-1.52 1.102-.265-.031-6.145-.645-7.798 5.427-.157.578-.708.963-1.312.963-.112 0-.226-.013-.34-.04-.725-.177-1.162-.877-.975-1.563 1.81-6.653 7.844-7.704 10.781-7.331.743.094 1.263.74 1.164 1.442z" transform="translate(-1050 -3801) translate(1046 3801)"/>
                <path d="M0 5H80V85H0z" transform="translate(-1050 -3801) translate(1046 3801)"/>
                <path fill="#F75632" fill-rule="nonzero" d="M72.284 11.716C64.73 4.16 54.684 0 44 0 33.316 0 23.27 4.16 15.716 11.716 8.16 19.27 4 29.316 4 40c0 10.684 4.16 20.73 11.716 28.284C23.27 75.84 33.316 80 44 80c10.684 0 20.73-4.16 28.284-11.716C79.84 60.73 84 50.684 84 40c0-10.684-4.16-20.73-11.716-28.284zM44.13 5.053c8.805 0 16.863 3.262 23.029 8.64L17.694 63.159c-5.379-6.166-8.641-14.224-8.641-23.03 0-19.34 15.735-35.075 35.076-35.075zm-.258 69.894c-8.805 0-16.863-3.262-23.029-8.64l49.464-49.465c5.379 6.166 8.641 14.224 8.641 23.03 0 19.34-15.735 35.075-35.076 35.075z" transform="translate(-1050 -3801) translate(1046 3801)"/>
            </g>
        </g>
    </g>
</svg>
