<svg xmlns="http://www.w3.org/2000/svg" width="80" height="80" viewBox="0 0 80 80">
    <g fill="none" fill-rule="evenodd">
        <g>
            <g>
                <path d="M0 0H80V80H0z" transform="translate(-990 -1173) translate(990 1173)"/>
                <path fill="#273B7A" fill-rule="nonzero" d="M65.133 57H27.724c-.87 0-1.624-.6-1.82-1.446L16.474 14.73H9.867C8.836 14.73 8 13.895 8 12.865S8.836 11 9.867 11h8.09c.87 0 1.624.6 1.82 1.446L29.21 53.27h35.924c1.031 0 1.867.835 1.867 1.865S66.164 57 65.133 57z" transform="translate(-990 -1173) translate(990 1173)"/>
                <path fill="#00AAAE" fill-rule="nonzero" d="M71.598 18.685c-.349-.433-.876-.685-1.434-.685H19.836c-.56 0-1.088.254-1.437.69-.348.435-.478 1.005-.352 1.547l5.65 24.348c.192.828.934 1.415 1.789 1.415h39.17c.858 0 1.602-.592 1.79-1.425l5.51-24.348c.122-.541-.01-1.109-.358-1.542z" transform="translate(-990 -1173) translate(990 1173)"/>
                <path fill="#121149" fill-rule="nonzero" d="M35.5 60c-3.584 0-6.5 2.916-6.5 6.5s2.916 6.5 6.5 6.5 6.5-2.916 6.5-6.5-2.916-6.5-6.5-6.5z" transform="translate(-990 -1173) translate(990 1173)"/>
                <g fill="#121149" fill-rule="nonzero">
                    <path d="M7.64.956C3.817.956.71 3.86.71 7.428c0 3.568 3.108 6.47 6.93 6.47 3.82 0 6.929-2.902 6.929-6.47 0-3.569-3.109-6.472-6.93-6.472z" transform="translate(-990 -1173) translate(990 1173) translate(50 59)"/>
                </g>
                <path fill="#018989" fill-rule="nonzero" d="M70.154 18H40v28h24.615c.864 0 1.612-.592 1.801-1.425l5.539-24.348c.123-.541-.01-1.108-.36-1.542-.35-.433-.88-.685-1.441-.685z" transform="translate(-990 -1173) translate(990 1173)"/>
            </g>
        </g>
    </g>
</svg>
