<svg xmlns="http://www.w3.org/2000/svg" width="80" height="80" viewBox="0 0 80 80">
    <g fill="none" fill-rule="evenodd">
        <g>
            <g>
                <path fill-rule="nonzero" stroke="#273B7A" stroke-width="4" d="M47.048 51c-2.146 3.418-4.5 6.7-7.05 9.825C37.45 57.7 35.097 54.418 32.952 51 21.458 52.168 13 56.124 13 60.825 13 66.445 25.088 71 40 71s27-4.556 27-10.175c-.001-4.7-8.459-8.657-19.952-9.825z" transform="translate(-829 -2080) translate(829 2080)"/>
                <path fill="#00AAAE" fill-rule="nonzero" d="M40 10c-8.836 0-16 7.278-16 16.256C23.908 41.766 40 61 40 61s16.092-19.234 16-34.744C56 17.278 48.836 10 40 10zm0 23.152c-3.748 0-6.787-3.087-6.787-6.896 0-3.808 3.039-6.895 6.787-6.895 3.748 0 6.787 3.087 6.787 6.895 0 3.809-3.039 6.896-6.787 6.896z" transform="translate(-829 -2080) translate(829 2080)"/>
                <path d="M0 0H80V80H0z" transform="translate(-829 -2080) translate(829 2080)"/>
            </g>
        </g>
    </g>
</svg>
