<svg xmlns="http://www.w3.org/2000/svg" width="80" height="80" viewBox="0 0 80 80">
    <g fill="none" fill-rule="evenodd">
        <g>
            <g>
                <path fill="#121149" fill-rule="nonzero" d="M23.5 27c-.897 0-1.793-.341-2.476-1.024-1.365-1.365-1.365-3.587 0-4.952 1.365-1.365 3.587-1.365 4.952 0 1.365 1.365 1.365 3.587 0 4.952-.683.683-1.58 1.024-2.476 1.024z" transform="translate(-679 -579) translate(679 579)"/>
                <path fill="#273B7A" fill-rule="nonzero" d="M28.212 30c-.457 0-.915-.175-1.264-.524l-4.424-4.424c-.699-.698-.699-1.83 0-2.528.698-.699 1.83-.699 2.528 0l4.424 4.424c.699.698.699 1.83 0 2.528-.349.35-.806.524-1.264.524z" transform="translate(-679 -579) translate(679 579)"/>
                <path fill="#121149" fill-rule="nonzero" d="M23.5 61c-.897 0-1.793-.341-2.476-1.024-1.365-1.365-1.365-3.587 0-4.952 1.365-1.365 3.587-1.365 4.952 0 1.365 1.365 1.365 3.587 0 4.952-.683.683-1.58 1.024-2.476 1.024z" transform="translate(-679 -579) translate(679 579)"/>
                <path fill="#273B7A" fill-rule="nonzero" d="M23.788 59c-.458 0-.915-.175-1.264-.524-.699-.698-.699-1.83 0-2.528l4.424-4.424c.698-.699 1.83-.699 2.528 0 .699.698.699 1.83 0 2.528l-4.424 4.424c-.35.35-.807.524-1.264.524z" transform="translate(-679 -579) translate(679 579)"/>
                <path fill="#121149" fill-rule="nonzero" d="M57.5 61c-.897 0-1.793-.341-2.476-1.024-1.365-1.365-1.365-3.587 0-4.952 1.365-1.365 3.587-1.365 4.952 0 1.365 1.365 1.365 3.587 0 4.952-.683.683-1.58 1.024-2.476 1.024z" transform="translate(-679 -579) translate(679 579)"/>
                <path fill="#273B7A" fill-rule="nonzero" d="M57.212 59c-.457 0-.915-.175-1.264-.524l-4.424-4.424c-.699-.698-.699-1.83 0-2.528.698-.699 1.83-.699 2.528 0l4.424 4.424c.699.698.699 1.83 0 2.528-.349.35-.806.524-1.264.524z" transform="translate(-679 -579) translate(679 579)"/>
                <path fill="#121149" fill-rule="nonzero" d="M57.5 27c-.897 0-1.793-.341-2.476-1.024-1.365-1.365-1.365-3.587 0-4.952 1.365-1.365 3.587-1.365 4.952 0 1.365 1.365 1.365 3.587 0 4.952-.683.683-1.58 1.024-2.476 1.024z" transform="translate(-679 -579) translate(679 579)"/>
                <path fill="#273B7A" fill-rule="nonzero" d="M52.788 30c-.458 0-.915-.175-1.264-.524-.699-.698-.699-1.83 0-2.528l4.424-4.424c.698-.699 1.83-.699 2.528 0 .699.698.699 1.83 0 2.528l-4.424 4.424c-.35.35-.807.524-1.264.524z" transform="translate(-679 -579) translate(679 579)"/>
                <path fill="#00AAAE" fill-rule="nonzero" d="M22 40c0 9.866 7.558 18 17.19 18.914.595.057 1.2.086 1.81.086 10.477 0 19-8.523 19-19s-8.523-19-19-19c-.61 0-1.215.03-1.81.086C29.558 22 22 30.134 22 40z" transform="translate(-679 -579) translate(679 579)"/>
                <g fill-rule="nonzero" transform="translate(-679 -579) translate(679 579) translate(16 15)">
                    <path fill="#018989" d="M43.75 25c0 10.34-8.41 18.75-18.75 18.75-.603 0-1.199-.029-1.786-.085C32.72 42.763 40.18 34.737 40.18 25c0-9.737-7.46-17.763-16.965-18.665.587-.056 1.183-.085 1.786-.085 10.34 0 18.75 8.41 18.75 18.75z"/>
                    <path fill="#273B7A" d="M48.214 26.786h-8.928c-.986 0-1.786-.8-1.786-1.786s.8-1.786 1.786-1.786h8.928c.986 0 1.786.8 1.786 1.786s-.8 1.786-1.786 1.786zM10.714 26.786H1.786C.8 26.786 0 25.986 0 25s.8-1.786 1.786-1.786h8.928c.986 0 1.786.8 1.786 1.786s-.8 1.786-1.786 1.786zM25 50c-.986 0-1.786-.8-1.786-1.786v-8.928c0-.986.8-1.786 1.786-1.786s1.786.8 1.786 1.786v8.928c0 .986-.8 1.786-1.786 1.786zM25 12.5c-.986 0-1.786-.8-1.786-1.786V1.786C23.214.8 24.014 0 25 0s1.786.8 1.786 1.786v8.928c0 .986-.8 1.786-1.786 1.786z"/>
                    <circle cx="19.085" cy="20.982" r="3.125" fill="#018989"/>
                    <path fill="#018989" d="M26.786 34.821c-1.97 0-3.572-1.602-3.572-3.571 0-1.97 1.602-3.571 3.572-3.571 1.969 0 3.571 1.602 3.571 3.571 0 1.97-1.602 3.571-3.571 3.571z"/>
                    <circle cx="33.036" cy="19.643" r="2.679" fill="#018989"/>
                </g>
                <path fill="#121149" fill-rule="nonzero" d="M65.5 44c-1.93 0-3.5-1.57-3.5-3.5s1.57-3.5 3.5-3.5 3.5 1.57 3.5 3.5-1.57 3.5-3.5 3.5zM15.5 44c-1.93 0-3.5-1.57-3.5-3.5s1.57-3.5 3.5-3.5 3.5 1.57 3.5 3.5-1.57 3.5-3.5 3.5zM40.5 69c-1.93 0-3.5-1.57-3.5-3.5s1.57-3.5 3.5-3.5 3.5 1.57 3.5 3.5-1.57 3.5-3.5 3.5zM40.5 19c-1.93 0-3.5-1.57-3.5-3.5s1.57-3.5 3.5-3.5 3.5 1.57 3.5 3.5-1.57 3.5-3.5 3.5z" transform="translate(-679 -579) translate(679 579)"/>
                <path d="M0 0H80V80H0z" transform="translate(-679 -579) translate(679 579)"/>
            </g>
        </g>
    </g>
</svg>
