<svg xmlns="http://www.w3.org/2000/svg" width="80" height="80" viewBox="0 0 80 80">
    <g fill="none" fill-rule="evenodd">
        <g>
            <g transform="translate(-202 -1839) translate(202 1839)">
                <path fill="#F2CBA7" fill-rule="nonzero" d="M29.15 17l-.131 1.25C28.807 20.256 30.426 22 32.5 22c2.042 0 3.65-1.693 3.489-3.673L35.88 17h-6.73z"/>
                <g fill="#273B7A" fill-rule="nonzero">
                    <path d="M3.52 35.869c-1.883 0-3.41-1.603-3.41-3.58V3.683C.11 1.706 1.637.103 3.52.103c1.883 0 3.41 1.603 3.41 3.58V32.29c0 1.976-1.527 3.579-3.41 3.579z" transform="translate(33 42)"/>
                </g>
                <g fill="#273B7A" fill-rule="nonzero">
                    <path d="M3.487 35.869c-1.884 0-3.41-1.603-3.41-3.58V3.683c0-1.976 1.526-3.579 3.41-3.579 1.883 0 3.41 1.603 3.41 3.58V32.29c0 1.976-1.527 3.579-3.41 3.579z" transform="translate(25 42)"/>
                </g>
                <rect width="6" height="9" x="17" y="38" fill="#F2CBA7" rx="3"/>
                <circle cx="32" cy="9" r="6" fill="#F2CBA7" fill-rule="nonzero"/>
                <path fill="#121149" fill-rule="nonzero" d="M56.242 24.433c-1.118-1.217-3.066-1.345-4.35-.285l-3.507 2.894V24.88c-.02-3.794-3.345-6.88-7.41-6.88h-4.793c.012 1.625-1.59 2.99-3.26 2.99-1.792 0-3.127-1.36-3.253-2.99h-5.247C20.35 18 17.02 21.086 17 24.88v16.315h6.166V24.904c.007-.556.604-1.06 1.256-1.06h.077V46h16.398l-.029-22.156h.106c.646 0 1.238.504 1.244 1.06v8.557c0 1.145.706 2.185 1.806 2.66 1.109.477 2.398.29 3.302-.457l8.615-7.11c1.285-1.059 1.42-2.905.3-4.121z"/>
                <g fill="#00AAAE" fill-rule="nonzero">
                    <path d="M28.856 9.834c0-.765-.566-1.41-1.328-1.515-2.99-.414-5.335-2.67-5.335-5.466V2.82c.005-.736-.517-1.369-1.243-1.51L14.45.04 7.6 1.377c-.754.147-1.285.826-1.24 1.589.005.093.008.187.008.281 0 2.677-2.172 4.91-5.058 5.423-.733.13-1.268.764-1.268 1.505v2.334c0 5.375 1.983 10.608 5.654 14.918 2.833 3.326 6.196 6.482 8.752 6.482 2.557 0 5.919-3.156 8.752-6.482 3.672-4.31 5.655-9.543 5.655-14.918V9.834z" transform="translate(34 18)"/>
                </g>
            </g>
        </g>
    </g>
</svg>
