<svg xmlns="http://www.w3.org/2000/svg" width="80" height="80" viewBox="0 0 80 80">
    <g fill="none" fill-rule="evenodd">
        <g>
            <g>
                <path fill="#273B7A" d="M25 19H56V51H25z" transform="translate(-829 -1841) translate(829 1841)"/>
                <path fill="#00AAAE" fill-rule="nonzero" d="M65 33.5C65 19.44 53.56 8 39.5 8S14 19.44 14 33.5 25.44 59 39.5 59 65 47.56 65 33.5zM34.954 44.378l-8.706-8.706 2.64-2.639 6.066 6.067 15.159-15.158 2.639 2.638-17.798 17.798z" transform="translate(-829 -1841) translate(829 1841)"/>
                <path fill="#121149" fill-rule="nonzero" d="M16.805 51L9 62.509l11.54-2.176L22.69 72 30 61.223C24.694 59.148 20.124 55.567 16.805 51zM64.195 51c-3.32 4.567-7.889 8.148-13.195 10.223L58.309 72l2.152-11.667L72 62.51 64.195 51z" transform="translate(-829 -1841) translate(829 1841)"/>
                <path d="M0 0H80V80H0z" transform="translate(-829 -1841) translate(829 1841)"/>
            </g>
        </g>
    </g>
</svg>
