<svg xmlns="http://www.w3.org/2000/svg" width="80" height="80" viewBox="0 0 80 80">
    <g fill="none" fill-rule="evenodd">
        <g>
            <g>
                <path fill="#121149" fill-rule="nonzero" d="M39.47 12c-13.622 0-25.11 9.223-28.456 21.702H8L13.261 42l5.261-8.298H15.8c3.206-9.933 12.603-17.145 23.67-17.145 11.17 0 20.64 7.348 23.758 17.426H68C64.753 21.361 53.193 12 39.47 12zM65.716 41l-5.284 8.298h2.993c-3.22 9.933-12.658 17.145-23.771 17.145-11.218 0-20.73-7.348-23.861-17.426H11C14.26 61.639 25.87 71 39.654 71c13.68 0 25.218-9.223 28.578-21.702H71L65.716 41z" transform="translate(-518 -1839) translate(518 1839)"/>
                <g fill-rule="nonzero">
                    <path fill="#A1A7B3" d="M30.1 37.96c0 2.772-2.258 5.04-5.017 5.04-1.505 0-2.86-.68-3.762-1.738-.803-.882-1.254-2.041-1.254-3.301V1.26c0-.706.551-1.26 1.254-1.26.702 0 1.254.554 1.254 1.26v36.7c0 1.387 1.129 2.52 2.508 2.52 1.38 0 2.509-1.133 2.509-2.52 0-.705.551-1.259 1.254-1.259.075 0 .15 0 .25.025.578.126 1.004.63 1.004 1.235z" transform="translate(-518 -1839) translate(518 1839) translate(18 19)"/>
                    <path fill="#979CA7" d="M30.1 37.96c0 2.772-2.212 5.04-4.914 5.04-1.474 0-2.801-.68-3.686-1.738V0c.688 0 1.229.554 1.229 1.26v36.7c0 1.387 1.105 2.52 2.457 2.52 1.351 0 2.457-1.133 2.457-2.52 0-.705.54-1.259 1.228-1.259.074 0 .148 0 .246.025.565.126.983.63.983 1.235z" transform="translate(-518 -1839) translate(518 1839) translate(18 19)"/>
                    <path fill="#018989" d="M21.5 2.867C9.691 2.867 0 12.583 0 24.526 0 25.23.563 25.8 1.26 25.8c.696 0 1.26-.57 1.26-1.274 0-.317 1.424-1.274 3.863-1.274.998 0 3.715.415 3.8 1.384l4.651-2.56 12.913-.029 5.08 2.536c.04-.872 2.832-1.331 3.79-1.331 2.439 0 3.863.957 3.863 1.274 0 .704.564 1.274 1.26 1.274.697 0 1.26-.57 1.26-1.274 0-11.943-9.691-21.66-21.5-21.66z" transform="translate(-518 -1839) translate(518 1839) translate(18 19)"/>
                    <path fill="#018989" d="M27.747 22.047l5.08 2.537c.04-.873 2.832-1.332 3.79-1.332 2.439 0 3.863.957 3.863 1.274 0 .704.564 1.274 1.26 1.274.697 0 1.26-.57 1.26-1.274 0-11.943-9.691-21.66-21.5-21.66v19.195l6.247-.014z" transform="translate(-518 -1839) translate(518 1839) translate(18 19)"/>
                    <path fill="#00AAAE" d="M27.788 5.88c-1.862-1.992-4.081-3.013-6.3-3.013-2.195 0-4.388.996-6.25 2.962-3.623 3.882-5.23 12.642-5.204 18.796.05.664.586 1.175 1.25 1.175.714 0 1.275-.562 1.275-1.277l.026-.025c.025-.332 1.377-1.252 3.8-1.252 2.475 0 3.827.97 3.827 1.277 0 .715.56 1.277 1.275 1.277.715 0 1.276-.562 1.276-1.277 0-.306 1.352-1.277 3.826-1.277 2.45 0 3.801.945 3.826 1.277 0 .715.562 1.277 1.276 1.277.689 0 1.224-.536 1.275-1.226.026-6.767-1.785-15.016-5.178-18.694z" transform="translate(-518 -1839) translate(518 1839) translate(18 19)"/>
                    <path fill="#00AAAE" d="M32.966 24.574c-.05.69-.586 1.226-1.274 1.226-.713 0-1.274-.562-1.274-1.277-.025-.332-1.376-1.277-3.822-1.277-2.471 0-3.822.97-3.822 1.277 0 .715-.56 1.277-1.274 1.277V2.867c2.217 0 4.434 1.021 6.294 3.013 3.389 3.678 5.198 11.927 5.172 18.694z" transform="translate(-518 -1839) translate(518 1839) translate(18 19)"/>
                </g>
                <path d="M0 0H80V80H0z" transform="translate(-518 -1839) translate(518 1839)"/>
            </g>
        </g>
    </g>
</svg>
