<svg xmlns="http://www.w3.org/2000/svg" width="80" height="80" viewBox="0 0 80 80">
    <g fill="none" fill-rule="evenodd">
        <g>
            <g>
                <g fill-rule="nonzero">
                    <path fill="#A1A7B3" d="M41 52.086C41 55.889 37.85 59 34 59c-2.1 0-3.99-.934-5.25-2.385-1.12-1.21-1.75-2.8-1.75-4.53V1.73C27 .76 27.77 0 28.75 0s1.75.76 1.75 1.729v50.357c0 1.901 1.575 3.457 3.5 3.457s3.5-1.556 3.5-3.457c0-.968.77-1.729 1.75-1.729.105 0 .21 0 .35.035.805.173 1.4.864 1.4 1.694z" transform="translate(-840 -1351) translate(840 1351) translate(11 11)"/>
                    <path fill="#979CA7" d="M42 52.086C42 55.889 38.914 59 35.143 59c-2.057 0-3.909-.934-5.143-2.385V0c.96 0 1.714.76 1.714 1.729v50.357c0 1.901 1.543 3.457 3.429 3.457s3.428-1.556 3.428-3.457c0-.968.755-1.729 1.715-1.729.103 0 .205 0 .342.035.79.173 1.372.864 1.372 1.694z" transform="translate(-840 -1351) translate(840 1351) translate(11 11)"/>
                    <path fill="#018989" d="M29.5 3C13.297 3 0 16.557 0 33.222 0 34.205.773 35 1.729 35c.955 0 1.728-.795 1.728-1.778 0-.442 1.955-1.778 5.3-1.778 1.371 0 5.098.58 5.216 1.931l6.381-3.57 17.718-.042 6.969 3.54c.054-1.219 3.887-1.859 5.201-1.859 3.346 0 5.301 1.336 5.301 1.778 0 .983.773 1.778 1.728 1.778.956 0 1.729-.795 1.729-1.778C59 16.557 45.703 3 29.5 3z" transform="translate(-840 -1351) translate(840 1351) translate(11 11)"/>
                    <path fill="#273B7A" d="M37.717 29.763l7.087 3.54c.056-1.219 3.953-1.859 5.29-1.859 3.402 0 5.39 1.336 5.39 1.778 0 .983.787 1.778 1.758 1.778.972 0 1.758-.795 1.758-1.778C59 16.557 45.478 3 29 3v26.783l8.717-.02z" transform="translate(-840 -1351) translate(840 1351) translate(11 11)"/>
                    <path fill="#273B7A" d="M39.774 7.205C37.176 4.425 34.079 3 30.982 3c-3.06 0-6.122 1.39-8.72 4.134C17.207 12.55 14.965 24.773 15 33.36c.072.926.82 1.639 1.745 1.639.996 0 1.78-.784 1.78-1.782l.035-.035c.035-.464 1.922-1.746 5.303-1.746 3.453 0 5.34 1.354 5.34 1.781 0 .998.782 1.782 1.78 1.782.996 0 1.779-.784 1.779-1.782 0-.427 1.887-1.781 5.34-1.781 3.416 0 5.303 1.318 5.338 1.781 0 .998.783 1.782 1.78 1.782.961 0 1.708-.748 1.78-1.71.035-9.444-2.492-20.954-7.226-26.085z" transform="translate(-840 -1351) translate(840 1351) translate(11 11)"/>
                    <path fill="#00AAAE" d="M45 33.29c-.072.962-.818 1.71-1.778 1.71-.996 0-1.778-.784-1.778-1.782-.035-.463-1.92-1.781-5.333-1.781-3.449 0-5.333 1.354-5.333 1.781 0 .998-.782 1.782-1.778 1.782V3c3.093 0 6.187 1.426 8.782 4.205C42.51 12.336 45.035 23.846 45 33.29z" transform="translate(-840 -1351) translate(840 1351) translate(11 11)"/>
                </g>
                <path d="M0 0H80V80H0z" transform="translate(-840 -1351) translate(840 1351)"/>
            </g>
        </g>
    </g>
</svg>
