<svg xmlns="http://www.w3.org/2000/svg" xmlns:xlink="http://www.w3.org/1999/xlink" width="82" height="82" viewBox="0 0 82 82">
    <defs>
        <path id="f9d8qnb4ya" d="M0 0.09L7.283 0.09 7.283 10.362 0 10.362z"/>
        <path id="s3kvm4eisc" d="M0.076 0.127L7.33 0.127 7.33 10.685 0.076 10.685z"/>
    </defs>
    <g fill="none" fill-rule="evenodd">
        <g>
            <g>
                <g fill-rule="nonzero">
                    <path fill="#121149" d="M6.278 19.512c.92 0 1.754-.395 2.37-1.028l3.38 1.804c-.018.147-.043.292-.043.444 0 2.017 1.537 3.658 3.425 3.658s3.424-1.641 3.424-3.658c0-.563-.13-1.09-.343-1.568l4.584-4.897c.446.229.94.367 1.466.367 1.889 0 3.425-1.641 3.425-3.658 0-.38-.07-.74-.171-1.084l3.983-3.19c.543.387 1.194.615 1.895.615 1.888 0 3.425-1.641 3.425-3.658C37.098 1.64 35.56 0 33.673 0S30.25 1.641 30.25 3.659c0 .38.07.739.17 1.083l-3.982 3.19c-.543-.387-1.195-.615-1.896-.615-1.888 0-3.424 1.641-3.424 3.659 0 .563.13 1.09.343 1.567l-4.583 4.897c-.447-.228-.94-.367-1.467-.367-.921 0-1.755.395-2.37 1.029l-3.38-1.805c.017-.147.042-.292.042-.443 0-2.018-1.536-3.659-3.424-3.659s-3.424 1.641-3.424 3.659c0 2.017 1.536 3.658 3.424 3.658z" transform="translate(-201 -1171) translate(201 1171) translate(6 29)"/>
                    <path fill="#00AAAE" d="M37.857 37.655H36.64V12.88c0-.648-.512-1.173-1.143-1.173h-4.57c-.632 0-1.143.525-1.143 1.173v24.775h-2.285V19.914c0-.648-.511-1.173-1.143-1.173h-4.57c-.631 0-1.142.525-1.142 1.173v17.741h-2.286v-8.362c0-.648-.51-1.173-1.142-1.173h-4.57c-.632 0-1.143.525-1.143 1.173v8.362H9.217V24.603c0-.648-.511-1.172-1.143-1.172h-4.57c-.631 0-1.143.524-1.143 1.172v13.052H1.143C.51 37.655 0 38.18 0 38.828 0 39.475.511 40 1.143 40h36.714C38.49 40 39 39.475 39 38.828c0-.648-.511-1.173-1.143-1.173z" transform="translate(-201 -1171) translate(201 1171) translate(6 29)"/>
                </g>
                <path fill="#03A3A6" d="M74.007 64.48l-1.207.946c-1.146.899-2.825.723-3.75-.392L52.59 45.167c-.924-1.115-.743-2.748.403-3.647l1.207-.946c1.146-.899 2.825-.723 3.75.392l16.46 19.866c.924 1.116.743 2.749-.403 3.648" transform="translate(-201 -1171) translate(201 1171)"/>
                <path fill="#0D294A" d="M66 60.939L71.321 57l2.663 3.382c1.115 1.415.877 3.466-.533 4.589-1.41 1.123-3.464.898-4.598-.504L66 60.939z" transform="translate(-201 -1171) translate(201 1171)"/>
                <path fill="#FFF" stroke="#0D294A" stroke-width="4" d="M60 28c0 8.284-6.94 15-15.5 15C35.94 43 29 36.284 29 28c0-8.284 6.94-15 15.5-15C53.06 13 60 19.716 60 28z" transform="translate(-201 -1171) translate(201 1171)"/>
                <g>
                    <g transform="translate(-201 -1171) translate(201 1171) translate(37 22)">
                        <mask id="dld9ygthob" fill="#fff">
                            <use xlink:href="#f9d8qnb4ya"/>
                        </mask>
                        <path fill="#03A3A6" d="M2.16 4.689h.859c1.087 0 1.731-.575 1.731-1.467 0-.938-.6-1.407-1.602-1.422-.53 0-.83.045-.987.076v2.813zM0 .302C.7.181 1.746.09 2.905.09c1.43 0 2.432.227 3.119.802.572.484.887 1.195.887 2.133 0 1.301-.873 2.193-1.703 2.51v.047c.673.287 1.045.968 1.288 1.906.3 1.15.6 2.48.787 2.874H5.051c-.158-.287-.387-1.12-.672-2.375-.258-1.27-.673-1.619-1.56-1.634H2.16v4.009H0V.302z" mask="url(#dld9ygthob)"/>
                    </g>
                    <g transform="translate(-201 -1171) translate(201 1171) translate(37 22) translate(8.47 3)">
                        <mask id="g9oo2udw4d" fill="#fff">
                            <use xlink:href="#s3kvm4eisc"/>
                        </mask>
                        <path fill="#03A3A6" d="M2.308 4.514c0 .181.014.348.043.484.143.62.644 1.09 1.274 1.09.944 0 1.502-.833 1.502-2.089 0-1.18-.501-2.072-1.474-2.072-.616 0-1.16.484-1.302 1.165-.029.12-.043.272-.043.408v1.014zM.133 2.774c0-.968-.028-1.8-.057-2.48h1.889l.1 1.028h.028C2.608.535 3.41.127 4.425.127c1.532 0 2.905 1.407 2.905 3.766 0 2.693-1.617 3.964-3.176 3.964-.844 0-1.503-.363-1.818-.847h-.028v3.675H.133v-7.91z" mask="url(#g9oo2udw4d)"/>
                    </g>
                </g>
            </g>
        </g>
    </g>
</svg>
