<svg xmlns="http://www.w3.org/2000/svg" width="80" height="80" viewBox="0 0 80 80">
    <g fill="none" fill-rule="evenodd">
        <g>
            <g>
                <g transform="translate(-203 -1294) translate(99 1294) translate(104)">
                    <path fill="#D8E2F1" fill-rule="nonzero" d="M55 55L57 55 57 63 55 63z"/>
                    <ellipse cx="55" cy="66" fill="#273B7A" fill-rule="nonzero" rx="5" ry="6"/>
                    <circle cx="56.5" cy="66.5" r="1.5" fill="#121149" fill-rule="nonzero"/>
                    <path fill="#273B7A" fill-rule="nonzero" d="M70.797 64h-5.961c-.465 0-.888-.306-1.087-.786L62 59h8.797c.664 0 1.203.616 1.203 1.375v2.25c0 .76-.539 1.375-1.203 1.375z"/>
                    <path fill="#D8E2F1" fill-rule="nonzero" d="M64 59l-2.963-6.4c-.17-.366-.531-.6-.928-.6H55v2.103h4.46L61.728 59H64zM21 10h-2.13v-.099c0-.733-.809-1.33-1.803-1.33H12V7h5.067C19.236 7 21 8.301 21 9.901V10z"/>
                    <path fill="#273B7A" fill-rule="nonzero" d="M13 7.766v6.468c0 .423-.415.766-.928.766H8.928C8.415 15 8 14.657 8 14.234V7.766C8 7.343 8.415 7 8.928 7h3.144c.513 0 .928.343.928.766z"/>
                    <path fill="#00AAAE" fill-rule="nonzero" d="M19 55V36h32.865C54.7 36 57 38.43 57 41.429v12.227c0 .742-.569 1.344-1.27 1.344H19z"/>
                    <path fill="#018989" fill-rule="nonzero" d="M36.234 36H16v11.772c2.15-2.863 5.543-4.715 9.354-4.715 6.484 0 11.758 5.358 11.758 11.943H47c0-8.097-4.332-15.185-10.766-19z"/>
                    <path fill="#D8E2F1" fill-rule="nonzero" d="M25 36h-8V11h1.497c2.827 0 5.163 2.154 5.325 4.91L25 36z"/>
                    <path fill="#B7C8EA" fill-rule="nonzero" d="M23.702 15.908C23.527 13.199 21.04 11.074 18 11c1.572.867 2.653 2.375 2.766 4.126L22.063 36H25l-1.298-20.092z"/>
                    <g fill-rule="nonzero" transform="translate(8 36)">
                        <path fill="#D8E2F1" d="M33.04 19.54H22.504c-.54 0-.978-.439-.978-.979s.438-.978.978-.978H33.04c.54 0 .978.438.978.978s-.438.978-.978.978zM18.552 15.588c-.54 0-.978-.438-.978-.978V4.073c0-.54.438-.978.978-.978s.978.438.978.978V14.61c0 .54-.438.978-.978.978zM18.552 34.027c-.54 0-.978-.438-.978-.978V22.512c0-.54.438-.978.978-.978s.978.438.978.978V33.05c0 .54-.438.978-.978.978zM15.758 16.745c-.25 0-.5-.096-.691-.286l-7.45-7.45c-.383-.383-.383-1.002 0-1.384.381-.382 1-.382 1.382 0l7.45 7.45c.383.383.383 1.002 0 1.384-.19.19-.44.286-.69.286zM28.797 29.783c-.25 0-.501-.095-.692-.286l-7.45-7.45c-.382-.382-.382-1.002 0-1.383.381-.382 1-.382 1.382 0l7.451 7.45c.382.382.382 1.001 0 1.383-.19.19-.441.286-.691.286zM14.6 19.539H4.065c-.54 0-.978-.438-.978-.978s.438-.978.978-.978h10.537c.54 0 .978.438.978.978s-.438.978-.978.978zM8.308 29.783c-.25 0-.5-.095-.692-.286-.382-.382-.382-1.001 0-1.383l7.45-7.45c.383-.382 1.002-.382 1.384 0 .382.381.382 1 0 1.382L9 29.497c-.192.19-.442.286-.692.286zM21.346 16.745c-.25 0-.5-.096-.691-.286-.382-.382-.382-1.001 0-1.383l7.45-7.45c.382-.383 1.001-.383 1.383 0 .382.381.382 1 0 1.382l-7.45 7.45c-.191.191-.442.287-.692.287z"/>
                        <path fill="#273B7A" d="M18.552.122C8.369.122.113 8.377.113 18.561S8.37 37 18.552 37c10.184 0 18.439-8.255 18.439-18.439S28.736.122 18.552.122zm0 32.927c-8.001 0-14.488-6.487-14.488-14.488S10.551 4.073 18.552 4.073 33.04 10.56 33.04 18.561s-6.487 14.488-14.488 14.488z"/>
                        <path fill="#121149" d="M29.802 3.952c2.401 3.113 3.83 7.015 3.83 11.25 0 1.732-.239 3.407-.685 4.996-.752 6.693-6.065 12.005-12.758 12.758-1.589.446-3.264.685-4.995.685-4.236 0-8.137-1.429-11.25-3.83C7.314 34.183 12.603 37 18.551 37c10.184 0 18.439-8.255 18.439-18.439 0-5.948-2.817-11.237-7.189-14.609z"/>
                        <circle cx="18.552" cy="18.561" r="3.951" fill="#D8E2F1"/>
                        <path fill="#B7C8EA" d="M20.178 14.96c.224.496.35 1.046.35 1.625 0 2.183-1.77 3.952-3.951 3.952-.58 0-1.13-.126-1.626-.35.62 1.37 1.999 2.325 3.601 2.325 2.182 0 3.951-1.769 3.951-3.951 0-1.603-.954-2.981-2.325-3.601z"/>
                    </g>
                    <path fill="#273B7A" fill-rule="nonzero" d="M44 33H23v-1.875C23 29.399 24.175 28 25.625 28h15.75C42.825 28 44 29.4 44 31.125V33z"/>
                    <path fill="#D8E2F1" fill-rule="nonzero" d="M16 30h30.014c.545 0 .986.506.986 1.13V36h-1.972v-3.74H16V30z"/>
                    <path d="M0 0H80V80H0z"/>
                </g>
            </g>
        </g>
    </g>
</svg>
