<svg xmlns="http://www.w3.org/2000/svg" width="80" height="80" viewBox="0 0 80 80">
    <g fill="none" fill-rule="evenodd">
        <g>
            <g>
                <path fill="#018989" fill-rule="nonzero" d="M18.56 48.343L7 43.96v9.639h11.509l1.284-2.504c.54-1.053-.012-2.285-1.233-2.75z" transform="translate(-195 -579) translate(195 579)"/>
                <path fill="#00AAAE" fill-rule="nonzero" d="M34.175 48.778c-.235 0-.467-.097-.63-.286l-3.86-4.476C27.307 41.262 26 37.756 26 34.146v-4.797c0-.448.37-.812.826-.812.456 0 .826.364.826.812v4.796c0 3.227 1.17 6.36 3.292 8.822l3.86 4.475c.295.342.252.854-.096 1.144-.155.13-.345.192-.533.192z" transform="translate(-195 -579) translate(195 579)"/>
                <path fill="#273B7A" fill-rule="nonzero" d="M33.5 58.417c-.828 0-1.5-.562-1.5-1.255V13.407c0-.693.671-1.255 1.5-1.255s1.5.562 1.5 1.255v43.755c0 .693-.671 1.255-1.5 1.255z" transform="translate(-195 -579) translate(195 579)"/>
                <path fill="#121149" fill-rule="nonzero" d="M6 68.056c-1.657 0-3-1.218-3-2.72V29.329c0-1.501 1.343-2.718 3-2.718s3 1.217 3 2.718v36.009c0 1.501-1.343 2.719-3 2.719zM73 68.056c-1.657 0-3-1.218-3-2.72V29.329c0-1.501 1.343-2.718 3-2.718s3 1.217 3 2.718v36.009c0 1.501-1.343 2.719-3 2.719z" transform="translate(-195 -579) translate(195 579)"/>
                <path fill="#121149" fill-rule="nonzero" d="M6 51.67L73 51.67 73 60.345 6 60.345z" transform="translate(-195 -579) translate(195 579)"/>
                <path fill="#00AAAE" fill-rule="nonzero" d="M9 50.706v3.42c0 1.305 1.2 2.363 2.68 2.363h55.64c1.48 0 2.68-1.058 2.68-2.363v-3.42H9z" transform="translate(-195 -579) translate(195 579)"/>
                <path fill="#018989" fill-rule="nonzero" d="M65.247 41.068H27.753c-2.072 0-3.753 1.773-3.753 3.961v6.645c0 2.127 1.634 3.851 3.65 3.851h37.7c2.016 0 3.65-1.724 3.65-3.85v-6.646c0-2.188-1.68-3.961-3.753-3.961z" transform="translate(-195 -579) translate(195 579)"/>
                <path fill="#273B7A" fill-rule="nonzero" d="M27.744 23.718c-.41 0-.744-.388-.744-.866v-2.846c0-1.142.798-2.071 1.778-2.071h3.478c.41 0 .744.388.744.867 0 .478-.333.866-.744.866h-3.478c-.16 0-.29.152-.29.338v2.846c0 .478-.333.866-.744.866z" transform="translate(-195 -579) translate(195 579)"/>
                <path fill="#273B7A" fill-rule="nonzero" d="M29.168 20.827h-4.336c-.46 0-.832.433-.832.969v2.862l3 1.952 3-1.952v-2.862c0-.536-.372-.97-.832-.97z" transform="translate(-195 -579) translate(195 579)"/>
                <path fill="#00AAAE" fill-rule="nonzero" d="M24 24.682v4.825c0 .529.372.958.832.958h4.336c.46 0 .832-.429.832-.958v-4.825h-6z" transform="translate(-195 -579) translate(195 579)"/>
                <path d="M0 1.549H80V78.65700000000001H0z" transform="translate(-195 -579) translate(195 579)"/>
            </g>
        </g>
    </g>
</svg>
