<svg xmlns="http://www.w3.org/2000/svg" width="80" height="81" viewBox="0 0 80 81">
    <g fill="none" fill-rule="evenodd">
        <g>
            <g>
                <g transform="translate(-1158 -968) translate(1046 968) translate(112)">
                    <path fill="#00AAAE" fill-rule="nonzero" d="M60.746 51.304c.786 0 1.383-.777 1.23-1.614l-4.508-24.534c-.274-1.49-1.481-2.562-2.892-2.562h-5.1c-.49 0-.957.133-1.369.367l1.606.492-5.915-.554-8.593-3.71c-1.162-.501-2.512.03-3.015 1.186-.504 1.157.03 2.501 1.191 3.003l8.927 3.855c.222.095.457.156.698.178l6.278.588-3.29.366-.3 1.631-.81.773-7.474 3.582v5.067l7.186-3.444-2.52 13.716c-.154.839.442 1.614 1.23 1.614h1.822l-.992 3.729c-.054.203-.086.412-.095.622l-.526 12.304C43.444 69.615 44.772 71 46.443 71c1.56 0 2.857-1.226 2.924-2.793l.513-11.987 1.308-4.916h1.271v5.347c0 .226.027.452.08.672l2.717 11.431c.371 1.563 1.945 2.539 3.525 2.167 1.574-.371 2.548-1.943 2.175-3.51l-2.639-11.1v-5.007h2.43z"/>
                    <path fill="#F2CBA7" fill-rule="nonzero" d="M31.152 32.782l.846-2.281L33 24.33c-1.229-1.191-3.02-1.667-4.722-1.08-2.5.862-3.86 3.687-3.039 6.31.81 2.589 3.442 4.012 5.913 3.22z"/>
                    <path fill="#273B7A" fill-rule="nonzero" d="M37.963 17.03c-.727-.108-1.433.077-1.963.454L40 19c-.076-.967-.896-1.8-2.037-1.97z"/>
                    <path fill="#121149" fill-rule="nonzero" d="M33.937 25l-.934 5.55-3.817 6.283.706-1.837-3.161-.024c-1.804-.015-3.278 1.455-3.292 3.281l-.009 1.114-1.86 6.372-7.564 2.444c-1.132.366-1.756 1.591-1.395 2.737.246.782.889 1.323 1.631 1.473-.245.233-.448.514-.594.832L7.252 67.128c-.627 1.363-.044 2.982 1.302 3.617 1.354.638 2.949.035 3.571-1.319l3.344-7.269-.97-5.02c-.443-2.297 1.282-4.507 3.71-4.478l9.548.176-9.388 1.052c-1.562.175-2.645 1.665-2.343 3.228L18.283 68.8c.285 1.476 1.697 2.437 3.154 2.149 1.457-.289 2.407-1.719 2.122-3.194l-1.696-8.783 9.407-1.053-7.789 2.047 1.508 7.744c.21 1.09-.017 2.165-.558 3.037.235.16.518.253.822.253.818 0 1.48-.672 1.48-1.5v-9.328h5.828V69.5c0 .828.662 1.5 1.48 1.5s1.48-.672 1.48-1.5V58.673c0-.666-.429-1.23-1.023-1.425.806-.547 1.29-1.518 1.177-2.561l-.004-.029V35.79l-2.82 3.324 4.033-6.643c.144-.237.242-.5.289-.774L38 26.784 33.937 25zM23.346 50.364l-4.153.714 4.157-1.343-.004.63z"/>
                    <path d="M0 0H80V80H0z"/>
                    <ellipse cx="52.089" cy="15.41" fill="#F2CBA7" fill-rule="nonzero" rx="5.031" ry="5.059" transform="rotate(-4.069 52.089 15.41)"/>
                </g>
            </g>
        </g>
    </g>
</svg>
