<svg xmlns="http://www.w3.org/2000/svg" width="80" height="80" viewBox="0 0 80 80">
    <g fill="none" fill-rule="evenodd">
        <g>
            <g>
                <g>
                    <g>
                        <path fill="#FFF" d="M41.5 15.5L32 28 39 35.418 50.279 28 49 19.555zM27.5 34.5L33.511 40.815 27.5 52.742 14 51 14 42.028 23.755 34.5z" transform="translate(-686 -1294) translate(99 1294) translate(587) translate(8 12)"/>
                        <path fill="#273B7A" d="M24.249 17L14 29.973 19.125 35.358 25.642 32.99 36.089 43.01 43.617 51 49 45.096 37.565 35.358 29.149 25.921 36.089 19.175z" transform="translate(-686 -1294) translate(99 1294) translate(587) translate(8 12)"/>
                        <path fill="#03A3A6" d="M45.788 27.845c-1.36 1.353-3.309 1.761-5.025 1.227l-3.981 3.961-3.271-3.253 3.981-3.961c-.537-1.708-.126-3.648 1.234-5 1.37-1.362 3.336-1.767 5.06-1.216l-2.548 2.537c-.628.624-.344 1.355.284 1.98l.948.943c.628.625 1.362.908 1.991.283l2.55-2.537c.554 1.717.147 3.674-1.223 5.036m.532 17.31l-3.022 3.007c-.18.18-.473.18-.654 0L23.952 29.566l-3.69 3.673c-.091.09-.237.09-.328 0l-4.117-4.095c-.089-.09-.09-.236 0-.326l9.165-9.116c.09-.09.267-.156.393-.147l7.823.567c.128.01.157.09.067.179l-5.637 5.608L46.32 44.505c.18.179.18.47 0 .65m-19.969 2.028c-1.37 1.363-3.337 1.768-5.062 1.217l2.55-2.537c.628-.625.343-1.356-.286-1.98l-.948-.944c-.627-.625-1.362-.908-1.99-.283l-2.549 2.536c-.554-1.716-.148-3.673 1.222-5.035 1.36-1.354 3.308-1.761 5.026-1.228l3.529-3.511 3.271 3.253-3.53 3.512c.537 1.708.127 3.647-1.233 5m23.965-31.656V6.5c0-.874-.712-1.583-1.591-1.583H43.05c-.88 0-1.591.709-1.591 1.583v1.484L32.534.38C32.237.127 31.87 0 31.501 0c-.37 0-.737.127-1.036.38L.556 25.86c-.506.43-.687 1.129-.458 1.75.232.622.826 1.034 1.493 1.034H8.2v25.774c0 .874.712 1.582 1.59 1.582h43.417c.88 0 1.592-.708 1.592-1.582V28.644h6.61c.665 0 1.261-.412 1.491-1.034.231-.621.049-1.32-.457-1.75L50.316 15.526z" transform="translate(-686 -1294) translate(99 1294) translate(587) translate(8 12)"/>
                    </g>
                    <path d="M0 0H80V80H0z" transform="translate(-686 -1294) translate(99 1294) translate(587)"/>
                </g>
            </g>
        </g>
    </g>
</svg>
