<svg xmlns="http://www.w3.org/2000/svg" width="75" height="80" viewBox="0 0 75 80">
    <g fill="none" fill-rule="evenodd">
        <g>
            <g>
                <g fill-rule="nonzero">
                    <g>
                        <path fill="#018989" d="M3.685 0L21.19 0 21.19 37.88 3.685 37.88z" transform="translate(-1156 -579) translate(1156 579) translate(11.163 15) rotate(-90 15.035 7.663)"/>
                        <path fill="#00AAAE" d="M0 3.987L17.505 3.987 17.505 41.867 0 41.867z" transform="translate(-1156 -579) translate(1156 579) translate(11.163 15) rotate(-90 15.035 7.663)"/>
                        <path fill="#018989" d="M3.685 9.968v25.918c1.018 0 1.843.893 1.843 1.994h6.449c0-1.101.825-1.994 1.843-1.994V9.968c-1.018 0-1.843-.892-1.843-1.993h-6.45c0 1.1-.824 1.993-1.842 1.993z" transform="translate(-1156 -579) translate(1156 579) translate(11.163 15) rotate(-90 15.035 7.663)"/>
                    </g>
                    <g>
                        <path fill="#F2CBA7" d="M29.995 6.42l1.69-.82c3.84-1.638 9.217-4.47 9.217-4.47 1.475-.9 3.35-.376 4.195 1.195.845 1.573 0 3.275-1.122 4.472 0 0-13.827 11.906-18.436 11.906-4.61 0-18.437-3.276-18.437-3.276V.687c7.682-1.36 10.31.819 21.51 4.635.614.278 1.029.672 1.29 1.149l.093-.052z" transform="translate(-1156 -579) translate(1156 579) translate(11.163 15) translate(7 30)"/>
                        <g fill="#E1B494">
                            <path d="M38.065 1.315C37.756.74 37.308.31 36.795.034c-.188.913-.736 1.781-1.388 2.477 0 0-12.291 11.606-16.9 11.606-3.673 0-14.719-1.775-18.437-2.62v2.92s13.828 3.276 18.437 3.276c4.609 0 18.436-11.906 18.436-11.906 1.122-1.196 1.967-2.899 1.122-4.472z" transform="translate(-1156 -579) translate(1156 579) translate(11.163 15) translate(7 30) translate(7.032 1.01)"/>
                            <path d="M20.504 10.385c1.245 0 2.51-.737 3.347-1.993.806-1.207.968-2.584.449-3.629l-1.337.646-.06.032c.01.018.033.05.04.063.257.478.122 1.24-.345 1.94-.513.77-1.46 1.462-2.417 1.273-1.506-.294-10.41-1.59-10.789-1.644-.416-.064-.807.252-.864.7-.057.448.237.86.657.922.091.013 9.248 1.345 10.717 1.631.2.04.4.06.602.06z" transform="translate(-1156 -579) translate(1156 579) translate(11.163 15) translate(7 30) translate(7.032 1.01)"/>
                        </g>
                        <path fill="#007474" d="M1.036 17.884H1.02c-.423 0-.76.368-.76.82h1.544c0-.452-.345-.82-.768-.82z" transform="translate(-1156 -579) translate(1156 579) translate(11.163 15) translate(7 30)"/>
                    </g>
                    <path fill="#121149" d="M14.884 47.385c0 .892-.66 1.615-1.476 1.615h-3.56c-.815 0-1.476-.723-1.476-1.615v-19.77c0-.892.66-1.615 1.475-1.615h3.561c.815 0 1.476.723 1.476 1.615v19.77z" transform="translate(-1156 -579) translate(1156 579) translate(11.163 15)"/>
                </g>
                <path d="M5.581 0H80V80H5.581z" transform="translate(-1156 -579) translate(1156 579)"/>
            </g>
        </g>
    </g>
</svg>
